<svg width="671" height="641" viewBox="0 0 671 641" fill="none" xmlns="http://www.w3.org/2000/svg">
<g opacity="0.2">
<mask id="path-1-inside-1_1_158" fill="white">
<path d="M279.802 31.8254C280.656 32.1499 281.181 33.0117 281.079 33.9194L278.446 57.2097C285.155 62.1848 291.158 67.9036 296.38 74.2L319.559 70.2576C320.458 70.105 321.345 70.5792 321.719 71.4102L338.657 109.105C339.03 109.938 338.792 110.919 338.078 111.488L319.362 126.4C320.446 134.268 320.632 142.315 319.85 150.388L339.595 164.392C340.338 164.919 340.631 165.883 340.307 166.734L325.63 205.364C325.305 206.218 324.444 206.744 323.536 206.641L298.707 203.833C294.029 209.895 288.735 215.356 282.952 220.158L287.199 245.123C287.352 246.021 286.878 246.91 286.047 247.284L248.353 264.221C247.52 264.595 246.538 264.357 245.968 263.643L229.763 243.305C222.681 244.215 215.461 244.396 208.21 243.801L193.064 265.157C192.537 265.9 191.573 266.193 190.722 265.87L152.092 251.193C151.238 250.868 150.713 250.006 150.815 249.099L153.775 222.911C148.069 218.564 142.89 213.674 138.283 208.346L112.333 212.762C111.435 212.915 110.546 212.441 110.172 211.61L93.2357 173.915C92.8615 173.082 93.0991 172.1 93.8134 171.531L114.05 155.404C112.994 148.202 112.694 140.844 113.198 133.449L92.2983 118.626C91.5555 118.098 91.2629 117.136 91.5863 116.284L106.264 77.6546C106.588 76.8006 107.45 76.275 108.358 76.3776L133.022 79.1654C137.668 72.8198 142.974 67.0969 148.806 62.0602L144.695 37.8968C144.542 36.9985 145.016 36.1098 145.847 35.7364L183.542 18.7997C184.375 18.4255 185.356 18.663 185.926 19.3774L200.772 38.0098C208.759 36.7648 216.942 36.4475 225.163 37.1292L238.83 17.8606C239.357 17.1174 240.32 16.8244 241.172 17.1481L279.802 31.8254ZM237.468 85.8103C206.469 74.0323 171.791 89.6143 160.013 120.613C148.235 151.613 163.817 186.29 194.816 198.068C225.815 209.846 260.493 194.265 272.271 163.265C284.049 132.266 268.467 97.5885 237.468 85.8103Z"/>
</mask>
<path d="M279.802 31.8254C280.656 32.1499 281.181 33.0117 281.079 33.9194L278.446 57.2097C285.155 62.1848 291.158 67.9036 296.38 74.2L319.559 70.2576C320.458 70.105 321.345 70.5792 321.719 71.4102L338.657 109.105C339.03 109.938 338.792 110.919 338.078 111.488L319.362 126.4C320.446 134.268 320.632 142.315 319.85 150.388L339.595 164.392C340.338 164.919 340.631 165.883 340.307 166.734L325.63 205.364C325.305 206.218 324.444 206.744 323.536 206.641L298.707 203.833C294.029 209.895 288.735 215.356 282.952 220.158L287.199 245.123C287.352 246.021 286.878 246.91 286.047 247.284L248.353 264.221C247.52 264.595 246.538 264.357 245.968 263.643L229.763 243.305C222.681 244.215 215.461 244.396 208.21 243.801L193.064 265.157C192.537 265.9 191.573 266.193 190.722 265.87L152.092 251.193C151.238 250.868 150.713 250.006 150.815 249.099L153.775 222.911C148.069 218.564 142.89 213.674 138.283 208.346L112.333 212.762C111.435 212.915 110.546 212.441 110.172 211.61L93.2357 173.915C92.8615 173.082 93.0991 172.1 93.8134 171.531L114.05 155.404C112.994 148.202 112.694 140.844 113.198 133.449L92.2983 118.626C91.5555 118.098 91.2629 117.136 91.5863 116.284L106.264 77.6546C106.588 76.8006 107.45 76.275 108.358 76.3776L133.022 79.1654C137.668 72.8198 142.974 67.0969 148.806 62.0602L144.695 37.8968C144.542 36.9985 145.016 36.1098 145.847 35.7364L183.542 18.7997C184.375 18.4255 185.356 18.663 185.926 19.3774L200.772 38.0098C208.759 36.7648 216.942 36.4475 225.163 37.1292L238.83 17.8606C239.357 17.1174 240.32 16.8244 241.172 17.1481L279.802 31.8254ZM237.468 85.8103C206.469 74.0323 171.791 89.6143 160.013 120.613C148.235 151.613 163.817 186.29 194.816 198.068C225.815 209.846 260.493 194.265 272.271 163.265C284.049 132.266 268.467 97.5885 237.468 85.8103Z" fill="#494087"/>
<path d="M279.802 31.8254L280.157 30.8906L280.157 30.8906L279.802 31.8254ZM281.079 33.9194L282.073 34.0317L282.073 34.0316L281.079 33.9194ZM278.446 57.2097L277.452 57.0973L277.387 57.6698L277.85 58.0129L278.446 57.2097ZM296.38 74.2L295.611 74.8385L295.979 75.2826L296.548 75.1859L296.38 74.2ZM319.559 70.2576L319.392 69.2718L319.392 69.2718L319.559 70.2576ZM321.719 71.4102L320.806 71.8201L320.806 71.8201L321.719 71.4102ZM338.657 109.105L339.569 108.695L339.569 108.695L338.657 109.105ZM338.078 111.488L338.701 112.27L338.701 112.27L338.078 111.488ZM319.362 126.4L318.739 125.618L318.294 125.972L318.371 126.536L319.362 126.4ZM319.85 150.388L318.855 150.292L318.799 150.869L319.272 151.204L319.85 150.388ZM339.595 164.392L340.173 163.576L340.173 163.576L339.595 164.392ZM325.63 205.364L326.565 205.72L326.565 205.719L325.63 205.364ZM323.536 206.641L323.424 207.635L323.424 207.635L323.536 206.641ZM298.707 203.833L298.819 202.839L298.259 202.776L297.915 203.222L298.707 203.833ZM282.952 220.158L282.313 219.389L281.87 219.757L281.966 220.326L282.952 220.158ZM287.199 245.123L288.185 244.956L288.185 244.956L287.199 245.123ZM248.353 264.221L248.763 265.133L248.763 265.133L248.353 264.221ZM245.968 263.643L245.186 264.266L245.186 264.266L245.968 263.643ZM229.763 243.305L230.545 242.682L230.194 242.242L229.636 242.313L229.763 243.305ZM208.21 243.801L208.292 242.804L207.724 242.757L207.395 243.222L208.21 243.801ZM193.064 265.157L193.88 265.736L193.88 265.736L193.064 265.157ZM190.722 265.87L190.367 266.805L190.367 266.805L190.722 265.87ZM150.815 249.099L149.821 248.986L149.821 248.987L150.815 249.099ZM153.775 222.911L154.768 223.024L154.832 222.46L154.381 222.116L153.775 222.911ZM138.283 208.346L139.039 207.692L138.67 207.265L138.115 207.36L138.283 208.346ZM112.333 212.762L112.501 213.748L112.501 213.748L112.333 212.762ZM110.172 211.61L109.26 212.02L109.26 212.02L110.172 211.61ZM93.2357 173.915L92.3235 174.325L92.3236 174.325L93.2357 173.915ZM93.8134 171.531L93.1902 170.749L93.1902 170.749L93.8134 171.531ZM114.05 155.404L114.673 156.187L115.123 155.828L115.039 155.259L114.05 155.404ZM113.198 133.449L114.196 133.517L114.234 132.957L113.776 132.633L113.198 133.449ZM92.2983 118.626L91.7196 119.441L91.7198 119.441L92.2983 118.626ZM91.5863 116.284L90.6515 115.929L90.6514 115.929L91.5863 116.284ZM108.358 76.3776L108.245 77.3712L108.245 77.3712L108.358 76.3776ZM133.022 79.1654L132.91 80.159L133.487 80.2242L133.829 79.7561L133.022 79.1654ZM148.806 62.0602L149.459 62.8169L149.886 62.4484L149.791 61.8925L148.806 62.0602ZM144.695 37.8968L143.709 38.0645L143.709 38.0645L144.695 37.8968ZM145.847 35.7364L145.437 34.8242L145.437 34.8242L145.847 35.7364ZM183.542 18.7997L183.132 17.8874L183.132 17.8875L183.542 18.7997ZM185.926 19.3774L186.708 18.7542L186.708 18.7542L185.926 19.3774ZM200.772 38.0098L199.99 38.6329L200.352 39.0873L200.926 38.9978L200.772 38.0098ZM225.163 37.1292L225.081 38.1258L225.649 38.1729L225.979 37.7077L225.163 37.1292ZM238.83 17.8606L239.645 18.4392L239.645 18.4391L238.83 17.8606ZM237.468 85.8103L237.823 84.8755L237.823 84.8755L237.468 85.8103ZM160.013 120.613L159.078 120.258L159.078 120.258L160.013 120.613ZM194.816 198.068L194.461 199.003L194.461 199.003L194.816 198.068ZM272.271 163.265L273.206 163.621L273.206 163.621L272.271 163.265ZM279.802 31.8254L279.447 32.7601C279.874 32.9225 280.137 33.3535 280.085 33.8072L281.079 33.9194L282.073 34.0316C282.226 32.6699 281.438 31.3774 280.157 30.8906L279.802 31.8254ZM281.079 33.9194L280.085 33.807L277.452 57.0973L278.446 57.2097L279.439 57.322L282.073 34.0317L281.079 33.9194ZM278.446 57.2097L277.85 58.0129C284.494 62.9396 290.438 68.6029 295.611 74.8385L296.38 74.2L297.15 73.5616C291.877 67.2044 285.816 61.43 279.041 56.4064L278.446 57.2097ZM296.38 74.2L296.548 75.1859L319.727 71.2435L319.559 70.2576L319.392 69.2718L296.213 73.2142L296.38 74.2ZM319.559 70.2576L319.727 71.2435C320.175 71.1673 320.619 71.404 320.806 71.8201L321.719 71.4102L322.631 71.0004C322.071 69.7544 320.74 69.0427 319.392 69.2718L319.559 70.2576ZM321.719 71.4102L320.806 71.8201L337.744 109.514L338.657 109.105L339.569 108.695L322.631 71.0003L321.719 71.4102ZM338.657 109.105L337.744 109.514C337.931 109.93 337.812 110.421 337.455 110.706L338.078 111.488L338.701 112.27C339.772 111.416 340.13 109.945 339.569 108.695L338.657 109.105ZM338.078 111.488L337.455 110.706L318.739 125.618L319.362 126.4L319.985 127.182L338.701 112.27L338.078 111.488ZM319.362 126.4L318.371 126.536C319.445 134.329 319.629 142.297 318.855 150.292L319.85 150.388L320.846 150.485C321.635 142.332 321.448 134.208 320.353 126.263L319.362 126.4ZM319.85 150.388L319.272 151.204L339.016 165.208L339.595 164.392L340.173 163.576L320.429 149.573L319.85 150.388ZM339.595 164.392L339.016 165.208C339.388 165.471 339.534 165.953 339.372 166.379L340.307 166.734L341.242 167.09C341.727 165.812 341.288 164.367 340.173 163.576L339.595 164.392ZM340.307 166.734L339.372 166.379L324.695 205.009L325.63 205.364L326.565 205.719L341.242 167.09L340.307 166.734ZM325.63 205.364L324.695 205.009C324.533 205.436 324.102 205.699 323.648 205.648L323.536 206.641L323.424 207.635C324.785 207.789 326.078 207 326.565 205.72L325.63 205.364ZM323.536 206.641L323.648 205.648L298.819 202.839L298.707 203.833L298.594 204.826L323.424 207.635L323.536 206.641ZM298.707 203.833L297.915 203.222C293.283 209.225 288.04 214.633 282.313 219.389L282.952 220.158L283.591 220.927C289.43 216.079 294.775 210.565 299.498 204.444L298.707 203.833ZM282.952 220.158L281.966 220.326L286.213 245.291L287.199 245.123L288.185 244.956L283.938 219.99L282.952 220.158ZM287.199 245.123L286.213 245.291C286.29 245.74 286.052 246.185 285.637 246.372L286.047 247.284L286.457 248.196C287.704 247.636 288.414 246.302 288.185 244.956L287.199 245.123ZM286.047 247.284L285.637 246.372L247.943 263.309L248.353 264.221L248.763 265.133L286.457 248.196L286.047 247.284ZM248.353 264.221L247.943 263.309C247.527 263.496 247.035 263.377 246.75 263.019L245.968 263.643L245.186 264.266C246.04 265.337 247.513 265.695 248.763 265.133L248.353 264.221ZM245.968 263.643L246.75 263.02L230.545 242.682L229.763 243.305L228.981 243.928L245.186 264.266L245.968 263.643ZM229.763 243.305L229.636 242.313C222.622 243.214 215.472 243.393 208.292 242.804L208.21 243.801L208.128 244.797C215.449 245.398 222.74 245.216 229.891 244.297L229.763 243.305ZM208.21 243.801L207.395 243.222L192.248 264.579L193.064 265.157L193.88 265.736L209.026 244.379L208.21 243.801ZM193.064 265.157L192.249 264.579C191.985 264.95 191.503 265.097 191.077 264.935L190.722 265.87L190.367 266.805C191.644 267.29 193.089 266.851 193.88 265.736L193.064 265.157ZM190.722 265.87L191.077 264.935L152.447 250.258L152.092 251.193L151.737 252.127L190.367 266.805L190.722 265.87ZM152.092 251.193L152.447 250.258C152.02 250.096 151.757 249.665 151.809 249.211L150.815 249.099L149.821 248.987C149.668 250.348 150.456 251.641 151.737 252.127L152.092 251.193ZM150.815 249.099L151.809 249.211L154.768 223.024L153.775 222.911L152.781 222.799L149.821 248.986L150.815 249.099ZM153.775 222.911L154.381 222.116C148.731 217.811 143.602 212.968 139.039 207.692L138.283 208.346L137.526 209C142.178 214.379 147.408 219.318 153.169 223.707L153.775 222.911ZM138.283 208.346L138.115 207.36L112.165 211.776L112.333 212.762L112.501 213.748L138.45 209.332L138.283 208.346ZM112.333 212.762L112.165 211.776C111.716 211.852 111.271 211.615 111.084 211.2L110.172 211.61L109.26 212.02C109.821 213.266 111.153 213.977 112.501 213.748L112.333 212.762ZM110.172 211.61L111.085 211.2L94.1479 173.505L93.2357 173.915L92.3236 174.325L109.26 212.02L110.172 211.61ZM93.2357 173.915L94.1479 173.505C93.9607 173.088 94.0797 172.598 94.4367 172.313L93.8134 171.531L93.1902 170.749C92.1184 171.603 91.7622 173.075 92.3235 174.325L93.2357 173.915ZM93.8134 171.531L94.4366 172.313L114.673 156.187L114.05 155.404L113.427 154.622L93.1902 170.749L93.8134 171.531ZM114.05 155.404L115.039 155.259C113.994 148.126 113.696 140.84 114.196 133.517L113.198 133.449L112.2 133.381C111.691 140.848 111.995 148.277 113.061 155.549L114.05 155.404ZM113.198 133.449L113.776 132.633L92.8768 117.81L92.2983 118.626L91.7198 119.441L112.619 134.264L113.198 133.449ZM92.2983 118.626L92.877 117.81C92.5058 117.547 92.3594 117.065 92.5212 116.64L91.5863 116.284L90.6514 115.929C90.1664 117.207 90.6052 118.65 91.7196 119.441L92.2983 118.626ZM91.5863 116.284L92.5211 116.64L107.198 78.0098L106.264 77.6546L105.329 77.2994L90.6515 115.929L91.5863 116.284ZM106.264 77.6546L107.198 78.0098C107.361 77.5826 107.792 77.32 108.245 77.3712L108.358 76.3776L108.47 75.3839C107.108 75.2299 105.815 76.0185 105.329 77.2994L106.264 77.6546ZM108.358 76.3776L108.245 77.3712L132.91 80.159L133.022 79.1654L133.135 78.1717L108.47 75.3839L108.358 76.3776ZM133.022 79.1654L133.829 79.7561C138.43 73.4722 143.684 67.8048 149.459 62.8169L148.806 62.0602L148.152 61.3034C142.264 66.3889 136.907 72.1674 132.216 78.5746L133.022 79.1654ZM148.806 62.0602L149.791 61.8925L145.681 37.7291L144.695 37.8968L143.709 38.0645L147.82 62.2279L148.806 62.0602ZM144.695 37.8968L145.681 37.7291C145.604 37.2797 145.842 36.8352 146.257 36.6485L145.847 35.7364L145.437 34.8242C144.19 35.3845 143.48 36.7174 143.709 38.0645L144.695 37.8968ZM145.847 35.7364L146.257 36.6485L183.952 19.7118L183.542 18.7997L183.132 17.8875L145.437 34.8242L145.847 35.7364ZM183.542 18.7997L183.952 19.7119C184.369 19.5246 184.859 19.6437 185.144 20.0006L185.926 19.3774L186.708 18.7542C185.854 17.6822 184.382 17.3263 183.132 17.8874L183.542 18.7997ZM185.926 19.3774L185.144 20.0005L199.99 38.6329L200.772 38.0098L201.554 37.3866L186.708 18.7542L185.926 19.3774ZM200.772 38.0098L200.926 38.9978C208.836 37.7649 216.94 37.4507 225.081 38.1258L225.163 37.1292L225.246 36.1326C216.945 35.4443 208.682 35.7647 200.618 37.0217L200.772 38.0098ZM225.163 37.1292L225.979 37.7077L239.645 18.4392L238.83 17.8606L238.014 17.2821L224.348 36.5507L225.163 37.1292ZM238.83 17.8606L239.645 18.4391C239.909 18.0677 240.391 17.921 240.817 18.0829L241.172 17.1481L241.527 16.2133C240.25 15.7279 238.805 16.1671 238.014 17.2821L238.83 17.8606ZM241.172 17.1481L240.817 18.0829L279.447 32.7602L279.802 31.8254L280.157 30.8906L241.527 16.2133L241.172 17.1481ZM237.468 85.8103L237.823 84.8755C206.308 72.9014 171.053 88.7429 159.078 120.258L160.013 120.613L160.948 120.969C172.53 90.4858 206.63 75.1633 237.113 86.7451L237.468 85.8103ZM160.013 120.613L159.078 120.258C147.104 151.774 162.945 187.029 194.461 199.003L194.816 198.068L195.171 197.134C164.688 185.552 149.366 151.451 160.948 120.969L160.013 120.613ZM194.816 198.068L194.461 199.003C225.976 210.977 261.232 195.136 273.206 163.621L272.271 163.265L271.337 162.91C259.755 193.393 225.654 208.715 195.171 197.134L194.816 198.068ZM272.271 163.265L273.206 163.621C285.18 132.105 269.339 96.8498 237.823 84.8755L237.468 85.8103L237.113 86.7451C267.596 98.3271 282.918 132.428 271.337 162.91L272.271 163.265Z" fill="white" mask="url(#path-1-inside-1_1_158)"/>
<mask id="path-3-inside-2_1_158" fill="white">
<path d="M431.648 224.969C432.502 225.293 433.028 226.155 432.925 227.063L430.291 250.353C437 255.328 443.002 261.047 448.225 267.343L471.405 263.4C472.303 263.247 473.192 263.722 473.565 264.553L490.502 302.247C490.876 303.08 490.639 304.061 489.924 304.631L471.208 319.544C472.292 327.412 472.478 335.458 471.697 343.532L491.441 357.535C492.184 358.063 492.477 359.025 492.154 359.877L477.476 398.508C477.151 399.362 476.289 399.887 475.381 399.784L450.552 396.976C445.874 403.038 440.58 408.499 434.798 413.301L439.044 438.266C439.197 439.165 438.724 440.052 437.893 440.426L400.199 457.363C399.365 457.737 398.384 457.5 397.815 456.785L381.609 436.447C374.526 437.357 367.306 437.539 360.055 436.944L344.909 458.3C344.382 459.043 343.42 459.337 342.568 459.013L303.937 444.336C303.083 444.011 302.558 443.148 302.66 442.241L305.621 416.055C299.915 411.708 294.737 406.817 290.129 401.488L264.178 405.904C263.28 406.057 262.392 405.582 262.018 404.751L245.081 367.057C244.707 366.224 244.945 365.243 245.659 364.673L265.897 348.546C264.841 341.343 264.539 333.986 265.043 326.591L244.144 311.769C243.401 311.242 243.108 310.279 243.432 309.428L258.109 270.798C258.433 269.944 259.295 269.418 260.203 269.521L284.868 272.308C289.514 265.963 294.82 260.24 300.651 255.203L296.541 231.039C296.388 230.141 296.862 229.253 297.693 228.88L335.387 211.943C336.22 211.568 337.202 211.806 337.771 212.52L352.618 231.153C360.605 229.908 368.788 229.591 377.009 230.272L390.676 211.003C391.203 210.26 392.166 209.968 393.017 210.291L431.648 224.969ZM389.314 278.953C358.314 267.175 323.637 282.757 311.858 313.756C300.08 344.756 315.662 379.433 346.661 391.212C377.661 402.99 412.338 387.408 424.117 356.409C435.894 325.409 420.313 290.731 389.314 278.953Z"/>
</mask>
<path d="M431.648 224.969C432.502 225.293 433.028 226.155 432.925 227.063L430.291 250.353C437 255.328 443.002 261.047 448.225 267.343L471.405 263.4C472.303 263.247 473.192 263.722 473.565 264.553L490.502 302.247C490.876 303.08 490.639 304.061 489.924 304.631L471.208 319.544C472.292 327.412 472.478 335.458 471.697 343.532L491.441 357.535C492.184 358.063 492.477 359.025 492.154 359.877L477.476 398.508C477.151 399.362 476.289 399.887 475.381 399.784L450.552 396.976C445.874 403.038 440.58 408.499 434.798 413.301L439.044 438.266C439.197 439.165 438.724 440.052 437.893 440.426L400.199 457.363C399.365 457.737 398.384 457.5 397.815 456.785L381.609 436.447C374.526 437.357 367.306 437.539 360.055 436.944L344.909 458.3C344.382 459.043 343.42 459.337 342.568 459.013L303.937 444.336C303.083 444.011 302.558 443.148 302.66 442.241L305.621 416.055C299.915 411.708 294.737 406.817 290.129 401.488L264.178 405.904C263.28 406.057 262.392 405.582 262.018 404.751L245.081 367.057C244.707 366.224 244.945 365.243 245.659 364.673L265.897 348.546C264.841 341.343 264.539 333.986 265.043 326.591L244.144 311.769C243.401 311.242 243.108 310.279 243.432 309.428L258.109 270.798C258.433 269.944 259.295 269.418 260.203 269.521L284.868 272.308C289.514 265.963 294.82 260.24 300.651 255.203L296.541 231.039C296.388 230.141 296.862 229.253 297.693 228.88L335.387 211.943C336.22 211.568 337.202 211.806 337.771 212.52L352.618 231.153C360.605 229.908 368.788 229.591 377.009 230.272L390.676 211.003C391.203 210.26 392.166 209.968 393.017 210.291L431.648 224.969ZM389.314 278.953C358.314 267.175 323.637 282.757 311.858 313.756C300.08 344.756 315.662 379.433 346.661 391.212C377.661 402.99 412.338 387.408 424.117 356.409C435.894 325.409 420.313 290.731 389.314 278.953Z" fill="#A692C1"/>
<path d="M431.648 224.969L432.003 224.034L432.003 224.034L431.648 224.969ZM432.925 227.063L433.919 227.175L433.919 227.175L432.925 227.063ZM430.291 250.353L429.297 250.24L429.233 250.813L429.695 251.156L430.291 250.353ZM448.225 267.343L447.455 267.981L447.823 268.425L448.392 268.329L448.225 267.343ZM471.405 263.4L471.573 264.386L471.573 264.386L471.405 263.4ZM473.565 264.553L474.477 264.143L473.565 264.553ZM490.502 302.247L491.414 301.837L491.414 301.837L490.502 302.247ZM489.924 304.631L490.548 305.413L490.548 305.413L489.924 304.631ZM471.208 319.544L470.585 318.762L470.14 319.117L470.217 319.681L471.208 319.544ZM471.697 343.532L470.701 343.435L470.645 344.012L471.118 344.347L471.697 343.532ZM491.441 357.535L492.019 356.72L492.019 356.72L491.441 357.535ZM492.154 359.877L493.088 360.232L493.089 360.232L492.154 359.877ZM477.476 398.508L478.411 398.863L478.411 398.863L477.476 398.508ZM475.381 399.784L475.269 400.778L475.269 400.778L475.381 399.784ZM450.552 396.976L450.664 395.982L450.104 395.919L449.76 396.365L450.552 396.976ZM434.798 413.301L434.159 412.532L433.715 412.9L433.812 413.469L434.798 413.301ZM439.044 438.266L440.03 438.099L440.03 438.099L439.044 438.266ZM437.893 440.426L437.483 439.514L437.893 440.426ZM400.199 457.363L400.609 458.275L400.609 458.275L400.199 457.363ZM397.815 456.785L397.033 457.408L397.033 457.408L397.815 456.785ZM381.609 436.447L382.391 435.824L382.04 435.384L381.481 435.455L381.609 436.447ZM360.055 436.944L360.137 435.947L359.569 435.9L359.24 436.365L360.055 436.944ZM344.909 458.3L345.725 458.879L345.725 458.879L344.909 458.3ZM342.568 459.013L342.213 459.948L342.213 459.948L342.568 459.013ZM303.937 444.336L303.582 445.27L303.582 445.27L303.937 444.336ZM302.66 442.241L301.667 442.128L301.667 442.128L302.66 442.241ZM305.621 416.055L306.615 416.167L306.678 415.603L306.227 415.259L305.621 416.055ZM290.129 401.488L290.886 400.834L290.517 400.408L289.961 400.503L290.129 401.488ZM264.178 405.904L264.346 406.89L264.346 406.89L264.178 405.904ZM262.018 404.751L261.106 405.161L261.106 405.161L262.018 404.751ZM245.081 367.057L244.169 367.467L244.169 367.467L245.081 367.057ZM245.659 364.673L245.036 363.891L245.036 363.891L245.659 364.673ZM265.897 348.546L266.52 349.328L266.97 348.97L266.886 348.401L265.897 348.546ZM265.043 326.591L266.041 326.659L266.079 326.099L265.622 325.775L265.043 326.591ZM244.144 311.769L243.566 312.585L243.566 312.585L244.144 311.769ZM243.432 309.428L242.497 309.072L242.497 309.072L243.432 309.428ZM260.203 269.521L260.315 268.527L260.315 268.527L260.203 269.521ZM284.868 272.308L284.755 273.302L285.332 273.367L285.675 272.899L284.868 272.308ZM300.651 255.203L301.304 255.96L301.731 255.591L301.637 255.036L300.651 255.203ZM296.541 231.039L295.555 231.206L295.555 231.207L296.541 231.039ZM297.693 228.88L297.283 227.968L297.283 227.968L297.693 228.88ZM335.387 211.943L334.977 211.031L335.387 211.943ZM337.771 212.52L338.553 211.897L337.771 212.52ZM352.618 231.153L351.836 231.776L352.198 232.231L352.772 232.141L352.618 231.153ZM377.009 230.272L376.926 231.269L377.494 231.316L377.824 230.851L377.009 230.272ZM390.676 211.003L389.861 210.424L389.861 210.425L390.676 211.003ZM393.017 210.291L393.372 209.356L393.372 209.356L393.017 210.291ZM389.314 278.953L389.669 278.019L389.314 278.953ZM311.858 313.756L310.924 313.401L310.924 313.401L311.858 313.756ZM346.661 391.212L346.306 392.146L346.661 391.212ZM424.117 356.409L425.051 356.764L425.051 356.764L424.117 356.409ZM431.648 224.969L431.293 225.904C431.72 226.066 431.983 226.497 431.931 226.95L432.925 227.063L433.919 227.175C434.073 225.813 433.284 224.521 432.003 224.034L431.648 224.969ZM432.925 227.063L431.931 226.95L429.297 250.24L430.291 250.353L431.285 250.465L433.919 227.175L432.925 227.063ZM430.291 250.353L429.695 251.156C436.339 256.083 442.283 261.746 447.455 267.981L448.225 267.343L448.994 266.704C443.721 260.347 437.661 254.573 430.887 249.549L430.291 250.353ZM448.225 267.343L448.392 268.329L471.573 264.386L471.405 263.4L471.237 262.414L448.057 266.357L448.225 267.343ZM471.405 263.4L471.573 264.386C472.021 264.309 472.466 264.546 472.653 264.963L473.565 264.553L474.477 264.143C473.917 262.897 472.585 262.185 471.237 262.414L471.405 263.4ZM473.565 264.553L472.653 264.963L489.59 302.657L490.502 302.247L491.414 301.837L474.477 264.143L473.565 264.553ZM490.502 302.247L489.59 302.656C489.777 303.073 489.658 303.564 489.301 303.848L489.924 304.631L490.548 305.413C491.619 304.558 491.975 303.087 491.414 301.837L490.502 302.247ZM489.924 304.631L489.301 303.848L470.585 318.762L471.208 319.544L471.831 320.326L490.548 305.413L489.924 304.631ZM471.208 319.544L470.217 319.681C471.291 327.473 471.475 335.441 470.701 343.435L471.697 343.532L472.692 343.628C473.481 335.476 473.293 327.352 472.199 319.408L471.208 319.544ZM471.697 343.532L471.118 344.347L490.862 358.351L491.441 357.535L492.019 356.72L472.275 342.716L471.697 343.532ZM491.441 357.535L490.862 358.351C491.234 358.615 491.38 359.096 491.219 359.522L492.154 359.877L493.089 360.232C493.574 358.954 493.134 357.51 492.019 356.72L491.441 357.535ZM492.154 359.877L491.219 359.522L476.541 398.153L477.476 398.508L478.411 398.863L493.088 360.232L492.154 359.877ZM477.476 398.508L476.541 398.152C476.379 398.579 475.948 398.842 475.493 398.791L475.381 399.784L475.269 400.778C476.63 400.932 477.924 400.144 478.411 398.863L477.476 398.508ZM475.381 399.784L475.494 398.791L450.664 395.982L450.552 396.976L450.439 397.97L475.269 400.778L475.381 399.784ZM450.552 396.976L449.76 396.365C445.128 402.368 439.885 407.776 434.159 412.532L434.798 413.301L435.436 414.071C441.275 409.222 446.62 403.708 451.343 397.587L450.552 396.976ZM434.798 413.301L433.812 413.469L438.058 438.434L439.044 438.266L440.03 438.099L435.783 413.134L434.798 413.301ZM439.044 438.266L438.058 438.434C438.135 438.883 437.898 439.327 437.483 439.514L437.893 440.426L438.303 441.338C439.549 440.778 440.259 439.446 440.03 438.099L439.044 438.266ZM437.893 440.426L437.483 439.514L399.789 456.451L400.199 457.363L400.609 458.275L438.303 441.338L437.893 440.426ZM400.199 457.363L399.789 456.451C399.372 456.638 398.881 456.519 398.597 456.162L397.815 456.785L397.033 457.408C397.887 458.48 399.359 458.837 400.609 458.275L400.199 457.363ZM397.815 456.785L398.597 456.162L382.391 435.824L381.609 436.447L380.827 437.071L397.033 457.408L397.815 456.785ZM381.609 436.447L381.481 435.455C374.468 436.356 367.317 436.536 360.137 435.947L360.055 436.944L359.974 437.94C367.295 438.541 374.585 438.358 381.736 437.439L381.609 436.447ZM360.055 436.944L359.24 436.365L344.094 457.722L344.909 458.3L345.725 458.879L360.871 437.522L360.055 436.944ZM344.909 458.3L344.094 457.722C343.83 458.094 343.348 458.24 342.923 458.078L342.568 459.013L342.213 459.948C343.491 460.433 344.935 459.993 345.725 458.879L344.909 458.3ZM342.568 459.013L342.923 458.079L304.292 443.401L303.937 444.336L303.582 445.27L342.213 459.948L342.568 459.013ZM303.937 444.336L304.292 443.401C303.866 443.239 303.603 442.807 303.654 442.353L302.66 442.241L301.667 442.128C301.513 443.489 302.301 444.783 303.582 445.27L303.937 444.336ZM302.66 442.241L303.654 442.353L306.615 416.167L305.621 416.055L304.627 415.942L301.667 442.128L302.66 442.241ZM305.621 416.055L306.227 415.259C300.577 410.955 295.449 406.111 290.886 400.834L290.129 401.488L289.373 402.142C294.025 407.522 299.254 412.461 305.015 416.85L305.621 416.055ZM290.129 401.488L289.961 400.503L264.011 404.918L264.178 405.904L264.346 406.89L290.297 402.474L290.129 401.488ZM264.178 405.904L264.011 404.918C263.562 404.994 263.117 404.757 262.93 404.341L262.018 404.751L261.106 405.161C261.666 406.407 262.998 407.119 264.346 406.89L264.178 405.904ZM262.018 404.751L262.931 404.341L245.993 366.647L245.081 367.057L244.169 367.467L261.106 405.161L262.018 404.751ZM245.081 367.057L245.993 366.647C245.806 366.231 245.925 365.74 246.282 365.455L245.659 364.673L245.036 363.891C243.964 364.745 243.608 366.217 244.169 367.467L245.081 367.057ZM245.659 364.673L246.282 365.455L266.52 349.328L265.897 348.546L265.274 347.764L245.036 363.891L245.659 364.673ZM265.897 348.546L266.886 348.401C265.841 341.268 265.542 333.982 266.041 326.659L265.043 326.591L264.046 326.523C263.537 333.99 263.842 341.419 264.907 348.691L265.897 348.546ZM265.043 326.591L265.622 325.775L244.723 310.953L244.144 311.769L243.566 312.585L264.465 327.406L265.043 326.591ZM244.144 311.769L244.723 310.953C244.351 310.69 244.205 310.208 244.366 309.783L243.432 309.428L242.497 309.072C242.011 310.35 242.451 311.794 243.566 312.585L244.144 311.769ZM243.432 309.428L244.366 309.783L259.044 271.153L258.109 270.798L257.174 270.442L242.497 309.072L243.432 309.428ZM258.109 270.798L259.044 271.153C259.206 270.726 259.637 270.463 260.091 270.514L260.203 269.521L260.315 268.527C258.953 268.373 257.661 269.162 257.174 270.442L258.109 270.798ZM260.203 269.521L260.091 270.514L284.755 273.302L284.868 272.308L284.98 271.315L260.315 268.527L260.203 269.521ZM284.868 272.308L285.675 272.899C290.275 266.615 295.53 260.948 301.304 255.96L300.651 255.203L299.997 254.446C294.109 259.532 288.752 265.31 284.061 271.718L284.868 272.308ZM300.651 255.203L301.637 255.036L297.526 230.871L296.541 231.039L295.555 231.207L299.665 255.371L300.651 255.203ZM296.541 231.039L297.526 230.872C297.45 230.423 297.687 229.979 298.103 229.792L297.693 228.88L297.283 227.968C296.037 228.528 295.326 229.859 295.555 231.206L296.541 231.039ZM297.693 228.88L298.103 229.792L335.797 212.855L335.387 211.943L334.977 211.031L297.283 227.968L297.693 228.88ZM335.387 211.943L335.797 212.855C336.214 212.668 336.704 212.787 336.989 213.144L337.771 212.52L338.553 211.897C337.699 210.825 336.227 210.469 334.977 211.031L335.387 211.943ZM337.771 212.52L336.989 213.144L351.836 231.776L352.618 231.153L353.4 230.53L338.553 211.897L337.771 212.52ZM352.618 231.153L352.772 232.141C360.682 230.908 368.785 230.594 376.926 231.269L377.009 230.272L377.091 229.276C368.79 228.587 360.528 228.908 352.464 230.165L352.618 231.153ZM377.009 230.272L377.824 230.851L391.492 211.582L390.676 211.003L389.861 210.425L376.193 229.694L377.009 230.272ZM390.676 211.003L391.492 211.582C391.755 211.211 392.236 211.064 392.662 211.226L393.017 210.291L393.372 209.356C392.095 208.871 390.651 209.31 389.861 210.424L390.676 211.003ZM393.017 210.291L392.662 211.226L431.293 225.904L431.648 224.969L432.003 224.034L393.372 209.356L393.017 210.291ZM389.314 278.953L389.669 278.019C358.153 266.044 322.898 281.886 310.924 313.401L311.858 313.756L312.793 314.112C324.375 283.629 358.475 268.306 388.958 279.888L389.314 278.953ZM311.858 313.756L310.924 313.401C298.949 344.917 314.791 380.172 346.306 392.146L346.661 391.212L347.017 390.277C316.534 378.695 301.211 344.595 312.793 314.112L311.858 313.756ZM346.661 391.212L346.306 392.146C377.822 404.121 413.077 388.279 425.051 356.764L424.117 356.409L423.182 356.053C411.6 386.536 377.5 401.859 347.017 390.277L346.661 391.212ZM424.117 356.409L425.051 356.764C437.025 325.248 421.184 289.993 389.669 278.019L389.314 278.953L388.958 279.888C419.441 291.47 434.763 325.57 423.182 356.053L424.117 356.409Z" fill="white" mask="url(#path-3-inside-2_1_158)"/>
<mask id="path-5-inside-3_1_158" fill="white">
<path d="M572.463 402.307C573.232 402.8 573.569 403.753 573.282 404.62L569.1 417.246C572.394 420.96 575.186 425.021 577.454 429.322L590.79 429.839C591.701 429.874 592.472 430.52 592.667 431.41L597.641 454.178C597.836 455.07 597.401 455.981 596.584 456.391L584.437 462.494C584.106 467.204 583.23 471.907 581.788 476.507L591.133 486.606C591.751 487.275 591.841 488.278 591.349 489.044L578.766 508.66C578.273 509.429 577.321 509.766 576.454 509.479L562.954 505.007C559.492 507.961 555.744 510.49 551.793 512.576L551.235 526.989C551.199 527.899 550.553 528.671 549.663 528.865L526.896 533.839C526.004 534.034 525.093 533.599 524.682 532.783L518.026 519.534C513.796 519.197 509.574 518.419 505.43 517.186L494.469 527.33C493.801 527.949 492.798 528.038 492.031 527.546L472.415 514.964C471.646 514.47 471.309 513.519 471.596 512.652L476.323 498.38C473.536 495.154 471.121 491.676 469.092 488.013L454.085 487.432C453.175 487.397 452.404 486.751 452.209 485.861L447.236 463.094C447.041 462.201 447.475 461.29 448.291 460.88L461.472 454.257C461.738 449.939 462.463 445.623 463.661 441.383L453.743 430.666C453.125 429.998 453.036 428.994 453.528 428.227L466.11 408.612C466.603 407.843 467.555 407.507 468.422 407.794L481.829 412.233C485.308 409.11 489.094 406.431 493.102 404.214L493.641 390.284C493.677 389.373 494.323 388.602 495.213 388.407L517.98 383.434C518.872 383.239 519.784 383.674 520.194 384.49L526.269 396.58C531.067 396.832 535.866 397.648 540.564 399.05L550.409 389.941C551.078 389.322 552.081 389.233 552.848 389.725L572.463 402.307ZM541.767 428.871C525.177 418.229 503.101 423.051 492.459 439.641C481.817 456.231 486.64 478.308 503.23 488.949C519.821 499.591 541.896 494.768 552.538 478.178C563.179 461.588 558.357 439.512 541.767 428.871Z"/>
</mask>
<path d="M572.463 402.307C573.232 402.8 573.569 403.753 573.282 404.62L569.1 417.246C572.394 420.96 575.186 425.021 577.454 429.322L590.79 429.839C591.701 429.874 592.472 430.52 592.667 431.41L597.641 454.178C597.836 455.07 597.401 455.981 596.584 456.391L584.437 462.494C584.106 467.204 583.23 471.907 581.788 476.507L591.133 486.606C591.751 487.275 591.841 488.278 591.349 489.044L578.766 508.66C578.273 509.429 577.321 509.766 576.454 509.479L562.954 505.007C559.492 507.961 555.744 510.49 551.793 512.576L551.235 526.989C551.199 527.899 550.553 528.671 549.663 528.865L526.896 533.839C526.004 534.034 525.093 533.599 524.682 532.783L518.026 519.534C513.796 519.197 509.574 518.419 505.43 517.186L494.469 527.33C493.801 527.949 492.798 528.038 492.031 527.546L472.415 514.964C471.646 514.47 471.309 513.519 471.596 512.652L476.323 498.38C473.536 495.154 471.121 491.676 469.092 488.013L454.085 487.432C453.175 487.397 452.404 486.751 452.209 485.861L447.236 463.094C447.041 462.201 447.475 461.29 448.291 460.88L461.472 454.257C461.738 449.939 462.463 445.623 463.661 441.383L453.743 430.666C453.125 429.998 453.036 428.994 453.528 428.227L466.11 408.612C466.603 407.843 467.555 407.507 468.422 407.794L481.829 412.233C485.308 409.11 489.094 406.431 493.102 404.214L493.641 390.284C493.677 389.373 494.323 388.602 495.213 388.407L517.98 383.434C518.872 383.239 519.784 383.674 520.194 384.49L526.269 396.58C531.067 396.832 535.866 397.648 540.564 399.05L550.409 389.941C551.078 389.322 552.081 389.233 552.848 389.725L572.463 402.307ZM541.767 428.871C525.177 418.229 503.101 423.051 492.459 439.641C481.817 456.231 486.64 478.308 503.23 488.949C519.821 499.591 541.896 494.768 552.538 478.178C563.179 461.588 558.357 439.512 541.767 428.871Z" fill="#5560AB"/>
<path d="M572.463 402.307L573.003 401.465L573.003 401.465L572.463 402.307ZM573.282 404.62L574.231 404.934L574.231 404.934L573.282 404.62ZM569.1 417.246L568.15 416.932L567.969 417.478L568.352 417.91L569.1 417.246ZM577.454 429.322L576.569 429.788L576.838 430.299L577.415 430.321L577.454 429.322ZM590.79 429.839L590.829 428.84L590.829 428.84L590.79 429.839ZM592.667 431.41L593.644 431.197L593.644 431.197L592.667 431.41ZM597.641 454.178L598.618 453.965L598.618 453.965L597.641 454.178ZM596.584 456.391L597.033 457.285L597.033 457.285L596.584 456.391ZM584.437 462.494L583.988 461.601L583.48 461.856L583.44 462.424L584.437 462.494ZM581.788 476.507L580.834 476.208L580.66 476.761L581.054 477.187L581.788 476.507ZM591.133 486.606L591.867 485.927L591.867 485.927L591.133 486.606ZM591.349 489.044L592.191 489.584L592.191 489.584L591.349 489.044ZM578.766 508.66L579.608 509.201L579.608 509.2L578.766 508.66ZM576.454 509.479L576.139 510.428L576.139 510.428L576.454 509.479ZM562.954 505.007L563.269 504.058L562.734 503.88L562.305 504.246L562.954 505.007ZM551.793 512.576L551.326 511.692L550.816 511.961L550.794 512.538L551.793 512.576ZM551.235 526.989L552.234 527.028L552.234 527.028L551.235 526.989ZM549.663 528.865L549.877 529.842L549.663 528.865ZM526.896 533.839L527.11 534.816L526.896 533.839ZM524.682 532.783L523.789 533.232L523.789 533.232L524.682 532.783ZM518.026 519.534L518.92 519.085L518.667 518.581L518.106 518.537L518.026 519.534ZM505.43 517.186L505.715 516.228L505.169 516.065L504.751 516.452L505.43 517.186ZM494.469 527.33L495.148 528.064L495.148 528.064L494.469 527.33ZM492.031 527.546L491.491 528.388L491.491 528.388L492.031 527.546ZM472.415 514.964L471.875 515.805L471.875 515.805L472.415 514.964ZM471.596 512.652L470.647 512.337L470.647 512.338L471.596 512.652ZM476.323 498.38L477.272 498.695L477.451 498.156L477.08 497.727L476.323 498.38ZM469.092 488.013L469.967 487.529L469.694 487.036L469.131 487.014L469.092 488.013ZM454.085 487.432L454.047 488.432L454.047 488.432L454.085 487.432ZM452.209 485.861L451.232 486.074L451.232 486.075L452.209 485.861ZM447.236 463.094L446.259 463.307L447.236 463.094ZM448.291 460.88L447.842 459.986L447.842 459.986L448.291 460.88ZM461.472 454.257L461.921 455.151L462.434 454.893L462.47 454.319L461.472 454.257ZM463.661 441.383L464.623 441.655L464.775 441.115L464.395 440.704L463.661 441.383ZM453.743 430.666L453.009 431.345L453.009 431.345L453.743 430.666ZM453.528 428.227L452.686 427.687L452.686 427.688L453.528 428.227ZM468.422 407.794L468.108 408.743L468.108 408.743L468.422 407.794ZM481.829 412.233L481.515 413.182L482.066 413.365L482.497 412.977L481.829 412.233ZM493.102 404.214L493.586 405.089L494.08 404.816L494.101 404.253L493.102 404.214ZM493.641 390.284L492.642 390.245L492.642 390.245L493.641 390.284ZM495.213 388.407L494.999 387.43L494.999 387.43L495.213 388.407ZM517.98 383.434L517.766 382.457L517.766 382.457L517.98 383.434ZM520.194 384.49L521.087 384.041L521.087 384.041L520.194 384.49ZM526.269 396.58L525.375 397.029L525.636 397.548L526.216 397.578L526.269 396.58ZM540.564 399.05L540.278 400.009L540.825 400.172L541.244 399.784L540.564 399.05ZM550.409 389.941L549.73 389.206L549.73 389.207L550.409 389.941ZM552.848 389.725L552.308 390.567L552.848 389.725ZM541.767 428.871L542.307 428.029L542.307 428.029L541.767 428.871ZM492.459 439.641L491.617 439.101L491.617 439.101L492.459 439.641ZM503.23 488.949L502.69 489.791L502.69 489.791L503.23 488.949ZM552.538 478.178L553.38 478.718L553.38 478.718L552.538 478.178ZM572.463 402.307L571.923 403.149C572.308 403.395 572.476 403.871 572.332 404.305L573.282 404.62L574.231 404.934C574.662 403.634 574.157 402.206 573.003 401.465L572.463 402.307ZM573.282 404.62L572.332 404.305L568.15 416.932L569.1 417.246L570.049 417.56L574.231 404.934L573.282 404.62ZM569.1 417.246L568.352 417.91C571.592 421.563 574.338 425.557 576.569 429.788L577.454 429.322L578.338 428.856C576.034 424.485 573.196 420.358 569.848 416.582L569.1 417.246ZM577.454 429.322L577.415 430.321L590.752 430.838L590.79 429.839L590.829 428.84L577.492 428.323L577.454 429.322ZM590.79 429.839L590.752 430.838C591.207 430.856 591.593 431.179 591.69 431.624L592.667 431.41L593.644 431.197C593.352 429.862 592.195 428.893 590.829 428.84L590.79 429.839ZM592.667 431.41L591.69 431.624L596.664 454.391L597.641 454.178L598.618 453.965L593.644 431.197L592.667 431.41ZM597.641 454.178L596.664 454.391C596.761 454.837 596.544 455.293 596.135 455.498L596.584 456.391L597.033 457.285C598.257 456.67 598.91 455.304 598.618 453.965L597.641 454.178ZM596.584 456.391L596.136 455.498L583.988 461.601L584.437 462.494L584.886 463.388L597.033 457.285L596.584 456.391ZM584.437 462.494L583.44 462.424C583.113 467.057 582.252 471.683 580.834 476.208L581.788 476.507L582.742 476.807C584.208 472.13 585.098 467.35 585.435 462.564L584.437 462.494ZM581.788 476.507L581.054 477.187L590.399 487.286L591.133 486.606L591.867 485.927L582.522 475.828L581.788 476.507ZM591.133 486.606L590.399 487.285C590.708 487.62 590.753 488.122 590.507 488.504L591.349 489.044L592.191 489.584C592.929 488.434 592.794 486.93 591.867 485.927L591.133 486.606ZM591.349 489.044L590.507 488.504L577.925 508.121L578.766 508.66L579.608 509.2L592.191 489.584L591.349 489.044ZM578.766 508.66L577.925 508.12C577.678 508.504 577.202 508.673 576.768 508.529L576.454 509.479L576.139 510.428C577.44 510.859 578.868 510.354 579.608 509.201L578.766 508.66ZM576.454 509.479L576.768 508.53L563.269 504.058L562.954 505.007L562.64 505.956L576.139 510.428L576.454 509.479ZM562.954 505.007L562.305 504.246C558.899 507.152 555.213 509.64 551.326 511.692L551.793 512.576L552.26 513.461C556.275 511.341 560.084 508.77 563.603 505.768L562.954 505.007ZM551.793 512.576L550.794 512.538L550.236 526.95L551.235 526.989L552.234 527.028L552.792 512.615L551.793 512.576ZM551.235 526.989L550.236 526.95C550.218 527.405 549.895 527.791 549.45 527.888L549.663 528.865L549.877 529.842C551.212 529.55 552.181 528.393 552.234 527.028L551.235 526.989ZM549.663 528.865L549.45 527.888L526.683 532.862L526.896 533.839L527.11 534.816L549.877 529.842L549.663 528.865ZM526.896 533.839L526.683 532.862C526.237 532.959 525.781 532.742 525.576 532.334L524.682 532.783L523.789 533.232C524.404 534.456 525.771 535.108 527.11 534.816L526.896 533.839ZM524.682 532.783L525.576 532.334L518.92 519.085L518.026 519.534L517.133 519.983L523.789 533.232L524.682 532.783ZM518.026 519.534L518.106 518.537C513.944 518.205 509.791 517.44 505.715 516.228L505.43 517.186L505.145 518.145C509.357 519.398 513.648 520.188 517.947 520.53L518.026 519.534ZM505.43 517.186L504.751 516.452L493.79 526.596L494.469 527.33L495.148 528.064L506.109 517.92L505.43 517.186ZM494.469 527.33L493.79 526.596C493.456 526.906 492.954 526.95 492.571 526.704L492.031 527.546L491.491 528.388C492.642 529.126 494.146 528.992 495.148 528.064L494.469 527.33ZM492.031 527.546L492.571 526.704L472.955 514.122L472.415 514.964L471.875 515.805L491.491 528.388L492.031 527.546ZM472.415 514.964L472.955 514.122C472.571 513.875 472.402 513.399 472.546 512.966L471.596 512.652L470.647 512.338C470.216 513.638 470.722 515.066 471.875 515.805L472.415 514.964ZM471.596 512.652L472.546 512.966L477.272 498.695L476.323 498.38L475.374 498.066L470.647 512.337L471.596 512.652ZM476.323 498.38L477.08 497.727C474.338 494.553 471.963 491.132 469.967 487.529L469.092 488.013L468.217 488.498C470.279 492.22 472.733 495.755 475.566 499.034L476.323 498.38ZM469.092 488.013L469.131 487.014L454.124 486.433L454.085 487.432L454.047 488.432L469.054 489.013L469.092 488.013ZM454.085 487.432L454.124 486.433C453.669 486.415 453.283 486.092 453.186 485.647L452.209 485.861L451.232 486.075C451.524 487.41 452.681 488.379 454.047 488.432L454.085 487.432ZM452.209 485.861L453.186 485.648L448.213 462.88L447.236 463.094L446.259 463.307L451.232 486.074L452.209 485.861ZM447.236 463.094L448.213 462.88C448.115 462.434 448.332 461.978 448.741 461.773L448.291 460.88L447.842 459.986C446.618 460.602 445.966 461.969 446.259 463.307L447.236 463.094ZM448.291 460.88L448.74 461.773L461.921 455.151L461.472 454.257L461.023 453.364L447.842 459.986L448.291 460.88ZM461.472 454.257L462.47 454.319C462.732 450.071 463.445 445.825 464.623 441.655L463.661 441.383L462.698 441.111C461.481 445.42 460.745 449.807 460.473 454.196L461.472 454.257ZM463.661 441.383L464.395 440.704L454.477 429.987L453.743 430.666L453.009 431.345L462.927 442.062L463.661 441.383ZM453.743 430.666L454.477 429.987C454.168 429.653 454.124 429.151 454.37 428.767L453.528 428.227L452.686 427.688C451.948 428.838 452.081 430.342 453.009 431.345L453.743 430.666ZM453.528 428.227L454.37 428.767L466.951 409.152L466.11 408.612L465.268 408.072L452.686 427.687L453.528 428.227ZM466.11 408.612L466.951 409.152C467.198 408.768 467.674 408.599 468.108 408.743L468.422 407.794L468.737 406.844C467.436 406.414 466.008 406.918 465.268 408.072L466.11 408.612ZM468.422 407.794L468.108 408.743L481.515 413.182L481.829 412.233L482.144 411.284L468.737 406.844L468.422 407.794ZM481.829 412.233L482.497 412.977C485.919 409.905 489.644 407.27 493.586 405.089L493.102 404.214L492.618 403.339C488.545 405.592 484.697 408.315 481.161 411.489L481.829 412.233ZM493.102 404.214L494.101 404.253L494.641 390.322L493.641 390.284L492.642 390.245L492.103 404.175L493.102 404.214ZM493.641 390.284L494.641 390.322C494.658 389.867 494.981 389.482 495.426 389.384L495.213 388.407L494.999 387.43C493.664 387.722 492.695 388.879 492.642 390.245L493.641 390.284ZM495.213 388.407L495.426 389.384L518.193 384.411L517.98 383.434L517.766 382.457L494.999 387.43L495.213 388.407ZM517.98 383.434L518.193 384.411C518.64 384.313 519.095 384.531 519.3 384.939L520.194 384.49L521.087 384.041C520.472 382.816 519.105 382.165 517.766 382.457L517.98 383.434ZM520.194 384.49L519.3 384.939L525.375 397.029L526.269 396.58L527.162 396.131L521.087 384.041L520.194 384.49ZM526.269 396.58L526.216 397.578C530.936 397.827 535.657 398.63 540.278 400.009L540.564 399.05L540.85 398.092C536.075 396.667 531.197 395.838 526.321 395.581L526.269 396.58ZM540.564 399.05L541.244 399.784L551.089 390.674L550.409 389.941L549.73 389.207L539.885 398.316L540.564 399.05ZM550.409 389.941L551.088 390.675C551.423 390.365 551.925 390.321 552.308 390.567L552.848 389.725L553.388 388.883C552.238 388.146 550.733 388.278 549.73 389.206L550.409 389.941ZM552.848 389.725L552.308 390.567L571.924 403.149L572.463 402.307L573.003 401.465L553.388 388.883L552.848 389.725ZM541.767 428.871L542.307 428.029C525.252 417.089 502.557 422.046 491.617 439.101L492.459 439.641L493.301 440.181C503.644 424.056 525.102 419.369 541.227 429.712L541.767 428.871ZM492.459 439.641L491.617 439.101C480.678 456.156 485.635 478.851 502.69 489.791L503.23 488.949L503.77 488.108C487.645 477.764 482.957 456.306 493.301 440.181L492.459 439.641ZM503.23 488.949L502.69 489.791C519.745 500.731 542.44 495.773 553.38 478.718L552.538 478.178L551.696 477.638C541.353 493.763 519.896 498.451 503.77 488.108L503.23 488.949ZM552.538 478.178L553.38 478.718C564.319 461.663 559.362 438.969 542.307 428.029L541.767 428.871L541.227 429.712C557.352 440.056 562.039 461.513 551.696 477.638L552.538 478.178Z" fill="white" mask="url(#path-5-inside-3_1_158)"/>
<mask id="path-7-inside-4_1_158" fill="white">
<path d="M293.976 426.63C294.678 427.214 294.895 428.2 294.503 429.025L288.793 441.038C291.603 445.131 293.872 449.505 295.591 454.054L308.762 456.215C309.661 456.363 310.347 457.099 310.43 458.006L312.552 481.214C312.635 482.124 312.091 482.975 311.23 483.281L298.423 487.835C297.512 492.467 296.061 497.026 294.062 501.413L302.087 512.589C302.618 513.329 302.583 514.335 302 515.035L287.091 532.946C286.506 533.648 285.52 533.865 284.695 533.473L271.851 527.367C268.05 529.87 264.02 531.917 259.842 533.499L257.507 547.732C257.359 548.631 256.622 549.318 255.715 549.401L232.508 551.523C231.598 551.606 230.747 551.062 230.441 550.202L225.473 536.232C221.316 535.375 217.223 534.081 213.262 532.345L201.132 541.058C200.392 541.589 199.386 541.554 198.686 540.971L180.775 526.061C180.073 525.477 179.856 524.49 180.248 523.665L186.702 510.086C184.335 506.541 182.369 502.792 180.809 498.907L165.988 496.476C165.09 496.329 164.404 495.592 164.321 494.685L162.198 471.478C162.115 470.568 162.659 469.717 163.52 469.411L177.417 464.468C178.215 460.215 179.468 456.022 181.181 451.962L172.663 440.103C172.131 439.363 172.168 438.356 172.75 437.656L187.66 419.746C188.244 419.043 189.23 418.826 190.056 419.218L202.811 425.28C206.648 422.611 210.737 420.42 214.988 418.716L217.245 404.959C217.392 404.06 218.129 403.375 219.036 403.292L242.244 401.169C243.153 401.085 244.004 401.63 244.31 402.491L248.844 415.238C253.574 416.082 258.235 417.484 262.724 419.456L273.619 411.633C274.359 411.101 275.365 411.138 276.066 411.721L293.976 426.63ZM260.233 449.196C245.085 436.587 222.583 438.645 209.973 453.792C197.363 468.941 199.421 491.443 214.569 504.053C229.717 516.663 252.22 514.605 264.83 499.457C277.44 484.309 275.381 461.806 260.233 449.196Z"/>
</mask>
<path d="M293.976 426.63C294.678 427.214 294.895 428.2 294.503 429.025L288.793 441.038C291.603 445.131 293.872 449.505 295.591 454.054L308.762 456.215C309.661 456.363 310.347 457.099 310.43 458.006L312.552 481.214C312.635 482.124 312.091 482.975 311.23 483.281L298.423 487.835C297.512 492.467 296.061 497.026 294.062 501.413L302.087 512.589C302.618 513.329 302.583 514.335 302 515.035L287.091 532.946C286.506 533.648 285.52 533.865 284.695 533.473L271.851 527.367C268.05 529.87 264.02 531.917 259.842 533.499L257.507 547.732C257.359 548.631 256.622 549.318 255.715 549.401L232.508 551.523C231.598 551.606 230.747 551.062 230.441 550.202L225.473 536.232C221.316 535.375 217.223 534.081 213.262 532.345L201.132 541.058C200.392 541.589 199.386 541.554 198.686 540.971L180.775 526.061C180.073 525.477 179.856 524.49 180.248 523.665L186.702 510.086C184.335 506.541 182.369 502.792 180.809 498.907L165.988 496.476C165.09 496.329 164.404 495.592 164.321 494.685L162.198 471.478C162.115 470.568 162.659 469.717 163.52 469.411L177.417 464.468C178.215 460.215 179.468 456.022 181.181 451.962L172.663 440.103C172.131 439.363 172.168 438.356 172.75 437.656L187.66 419.746C188.244 419.043 189.23 418.826 190.056 419.218L202.811 425.28C206.648 422.611 210.737 420.42 214.988 418.716L217.245 404.959C217.392 404.06 218.129 403.375 219.036 403.292L242.244 401.169C243.153 401.085 244.004 401.63 244.31 402.491L248.844 415.238C253.574 416.082 258.235 417.484 262.724 419.456L273.619 411.633C274.359 411.101 275.365 411.138 276.066 411.721L293.976 426.63ZM260.233 449.196C245.085 436.587 222.583 438.645 209.973 453.792C197.363 468.941 199.421 491.443 214.569 504.053C229.717 516.663 252.22 514.605 264.83 499.457C277.44 484.309 275.381 461.806 260.233 449.196Z" fill="#ECEAF6"/>
<path d="M293.976 426.63L294.616 425.861L294.616 425.861L293.976 426.63ZM294.503 429.025L295.406 429.454L295.406 429.454L294.503 429.025ZM288.793 441.038L287.89 440.609L287.642 441.129L287.968 441.604L288.793 441.038ZM295.591 454.054L294.655 454.407L294.859 454.947L295.429 455.04L295.591 454.054ZM308.762 456.215L308.924 455.228L308.924 455.228L308.762 456.215ZM310.43 458.006L311.426 457.915L311.426 457.915L310.43 458.006ZM312.552 481.214L313.548 481.123L313.547 481.123L312.552 481.214ZM311.23 483.281L311.565 484.223L311.565 484.223L311.23 483.281ZM298.423 487.835L298.088 486.893L297.551 487.084L297.442 487.642L298.423 487.835ZM294.062 501.413L293.152 500.998L292.911 501.526L293.249 501.996L294.062 501.413ZM302.087 512.589L302.9 512.006L302.899 512.006L302.087 512.589ZM302 515.035L302.769 515.675L302.769 515.675L302 515.035ZM287.091 532.946L287.859 533.586L287.859 533.586L287.091 532.946ZM284.695 533.473L284.266 534.376L284.266 534.376L284.695 533.473ZM271.851 527.367L272.28 526.464L271.771 526.222L271.301 526.532L271.851 527.367ZM259.842 533.499L259.488 532.563L258.949 532.768L258.855 533.337L259.842 533.499ZM257.507 547.732L258.493 547.894L258.493 547.894L257.507 547.732ZM255.715 549.401L255.806 550.397L255.806 550.397L255.715 549.401ZM232.508 551.523L232.599 552.519L232.599 552.519L232.508 551.523ZM230.441 550.202L229.499 550.537L229.499 550.537L230.441 550.202ZM225.473 536.232L226.415 535.897L226.227 535.366L225.675 535.252L225.473 536.232ZM213.262 532.345L213.664 531.43L213.142 531.201L212.679 531.533L213.262 532.345ZM201.132 541.058L201.715 541.87L201.715 541.87L201.132 541.058ZM198.686 540.971L198.046 541.74L198.046 541.74L198.686 540.971ZM180.775 526.061L180.135 526.83L180.135 526.83L180.775 526.061ZM180.248 523.665L179.345 523.236L179.345 523.236L180.248 523.665ZM186.702 510.086L187.605 510.515L187.849 510.003L187.534 509.531L186.702 510.086ZM180.809 498.907L181.736 498.534L181.526 498.011L180.97 497.92L180.809 498.907ZM165.988 496.476L165.826 497.463L165.827 497.463L165.988 496.476ZM164.321 494.685L163.325 494.776L163.325 494.776L164.321 494.685ZM162.198 471.478L163.194 471.387L162.198 471.478ZM163.52 469.411L163.185 468.469L163.184 468.469L163.52 469.411ZM177.417 464.468L177.752 465.41L178.294 465.217L178.4 464.652L177.417 464.468ZM181.181 451.962L182.102 452.351L182.32 451.834L181.993 451.379L181.181 451.962ZM172.663 440.103L171.851 440.686L171.851 440.686L172.663 440.103ZM172.75 437.656L171.982 437.016L171.982 437.016L172.75 437.656ZM190.056 419.218L190.485 418.315L190.485 418.315L190.056 419.218ZM202.811 425.28L202.381 426.183L202.905 426.433L203.382 426.101L202.811 425.28ZM214.988 418.716L215.36 419.644L215.883 419.434L215.975 418.878L214.988 418.716ZM217.245 404.959L218.232 405.121L218.232 405.121L217.245 404.959ZM219.036 403.292L218.945 402.296L218.945 402.296L219.036 403.292ZM242.244 401.169L242.153 400.173L242.153 400.173L242.244 401.169ZM244.31 402.491L245.252 402.155L245.252 402.155L244.31 402.491ZM248.844 415.238L247.902 415.573L248.097 416.121L248.669 416.223L248.844 415.238ZM262.724 419.456L262.322 420.372L262.844 420.601L263.308 420.268L262.724 419.456ZM273.619 411.633L274.202 412.445L274.202 412.445L273.619 411.633ZM260.233 449.196L260.873 448.428L260.873 448.428L260.233 449.196ZM209.973 453.792L209.204 453.153L209.204 453.153L209.973 453.792ZM214.569 504.053L213.929 504.822L213.929 504.822L214.569 504.053ZM264.83 499.457L265.599 500.097L265.599 500.097L264.83 499.457ZM293.976 426.63L293.336 427.398C293.687 427.69 293.796 428.184 293.6 428.596L294.503 429.025L295.406 429.454C295.994 428.217 295.669 426.738 294.616 425.861L293.976 426.63ZM294.503 429.025L293.6 428.596L287.89 440.609L288.793 441.038L289.696 441.467L295.406 429.454L294.503 429.025ZM288.793 441.038L287.968 441.604C290.732 445.63 292.964 449.933 294.655 454.407L295.591 454.054L296.526 453.7C294.779 449.078 292.473 444.632 289.617 440.472L288.793 441.038ZM295.591 454.054L295.429 455.04L308.6 457.202L308.762 456.215L308.924 455.228L295.753 453.067L295.591 454.054ZM308.762 456.215L308.6 457.202C309.05 457.276 309.393 457.644 309.434 458.097L310.43 458.006L311.426 457.915C311.301 456.554 310.272 455.45 308.924 455.228L308.762 456.215ZM310.43 458.006L309.434 458.097L311.556 481.305L312.552 481.214L313.547 481.123L311.426 457.915L310.43 458.006ZM312.552 481.214L311.556 481.305C311.597 481.76 311.325 482.186 310.895 482.338L311.23 483.281L311.565 484.223C312.857 483.763 313.672 482.487 313.548 481.123L312.552 481.214ZM311.23 483.281L310.895 482.338L298.088 486.893L298.423 487.835L298.758 488.777L311.565 484.223L311.23 483.281ZM298.423 487.835L297.442 487.642C296.545 492.199 295.118 496.683 293.152 500.998L294.062 501.413L294.972 501.828C297.004 497.369 298.478 492.736 299.404 488.028L298.423 487.835ZM294.062 501.413L293.249 501.996L301.275 513.172L302.087 512.589L302.899 512.006L294.874 500.83L294.062 501.413ZM302.087 512.589L301.275 513.172C301.541 513.543 301.523 514.046 301.232 514.395L302 515.035L302.769 515.675C303.643 514.624 303.696 513.116 302.9 512.006L302.087 512.589ZM302 515.035L301.232 514.395L286.322 532.306L287.091 532.946L287.859 533.586L302.769 515.675L302 515.035ZM287.091 532.946L286.322 532.306C286.03 532.657 285.537 532.766 285.124 532.57L284.695 533.473L284.266 534.376C285.504 534.964 286.982 534.639 287.859 533.586L287.091 532.946ZM284.695 533.473L285.124 532.57L272.28 526.464L271.851 527.367L271.421 528.27L284.266 534.376L284.695 533.473ZM271.851 527.367L271.301 526.532C267.562 528.994 263.598 531.007 259.488 532.563L259.842 533.499L260.196 534.434C264.442 532.826 268.538 530.746 272.401 528.202L271.851 527.367ZM259.842 533.499L258.855 533.337L256.52 547.57L257.507 547.732L258.493 547.894L260.829 533.66L259.842 533.499ZM257.507 547.732L256.52 547.57C256.446 548.02 256.077 548.364 255.624 548.405L255.715 549.401L255.806 550.397C257.167 550.272 258.272 549.242 258.493 547.894L257.507 547.732ZM255.715 549.401L255.624 548.405L232.417 550.527L232.508 551.523L232.599 552.519L255.806 550.397L255.715 549.401ZM232.508 551.523L232.417 550.527C231.962 550.569 231.536 550.297 231.383 549.866L230.441 550.202L229.499 550.537C229.958 551.828 231.234 552.644 232.599 552.519L232.508 551.523ZM230.441 550.202L231.383 549.867L226.415 535.897L225.473 536.232L224.531 536.567L229.499 550.537L230.441 550.202ZM225.473 536.232L225.675 535.252C221.586 534.409 217.56 533.137 213.664 531.43L213.262 532.345L212.861 533.261C216.886 535.025 221.047 536.34 225.271 537.211L225.473 536.232ZM213.262 532.345L212.679 531.533L200.548 540.246L201.132 541.058L201.715 541.87L213.846 533.158L213.262 532.345ZM201.132 541.058L200.549 540.246C200.178 540.512 199.675 540.493 199.325 540.202L198.686 540.971L198.046 541.74C199.097 542.614 200.605 542.667 201.715 541.87L201.132 541.058ZM198.686 540.971L199.326 540.203L181.414 525.293L180.775 526.061L180.135 526.83L198.046 541.74L198.686 540.971ZM180.775 526.061L181.415 525.293C181.064 525.001 180.955 524.507 181.152 524.094L180.248 523.665L179.345 523.236C178.757 524.473 179.081 525.953 180.135 526.83L180.775 526.061ZM180.248 523.665L181.152 524.094L187.605 510.515L186.702 510.086L185.799 509.657L179.345 523.236L180.248 523.665ZM186.702 510.086L187.534 509.531C185.206 506.044 183.271 502.356 181.736 498.534L180.809 498.907L179.881 499.28C181.466 503.228 183.465 507.038 185.87 510.641L186.702 510.086ZM180.809 498.907L180.97 497.92L166.15 495.489L165.988 496.476L165.827 497.463L180.647 499.894L180.809 498.907ZM165.988 496.476L166.151 495.489C165.701 495.416 165.358 495.047 165.316 494.594L164.321 494.685L163.325 494.776C163.45 496.137 164.478 497.242 165.826 497.463L165.988 496.476ZM164.321 494.685L165.317 494.594L163.194 471.387L162.198 471.478L161.203 471.569L163.325 494.776L164.321 494.685ZM162.198 471.478L163.194 471.387C163.153 470.932 163.425 470.506 163.855 470.353L163.52 469.411L163.184 468.469C161.894 468.928 161.078 470.204 161.203 471.569L162.198 471.478ZM163.52 469.411L163.855 470.353L177.752 465.41L177.417 464.468L177.082 463.526L163.185 468.469L163.52 469.411ZM177.417 464.468L178.4 464.652C179.185 460.469 180.418 456.344 182.102 452.351L181.181 451.962L180.259 451.573C178.519 455.699 177.246 459.961 176.434 464.283L177.417 464.468ZM181.181 451.962L181.993 451.379L173.475 439.519L172.663 440.103L171.851 440.686L180.369 452.545L181.181 451.962ZM172.663 440.103L173.475 439.519C173.21 439.15 173.227 438.646 173.519 438.296L172.75 437.656L171.982 437.016C171.108 438.066 171.053 439.576 171.851 440.686L172.663 440.103ZM172.75 437.656L173.519 438.296L188.428 420.385L187.66 419.746L186.891 419.106L171.982 437.016L172.75 437.656ZM187.66 419.746L188.428 420.385C188.721 420.034 189.214 419.925 189.626 420.121L190.056 419.218L190.485 418.315C189.247 417.726 187.767 418.053 186.891 419.106L187.66 419.746ZM190.056 419.218L189.626 420.121L202.381 426.183L202.811 425.28L203.24 424.377L190.485 418.315L190.056 419.218ZM202.811 425.28L203.382 426.101C207.156 423.476 211.178 421.321 215.36 419.644L214.988 418.716L214.616 417.788C210.295 419.52 206.14 421.746 202.24 424.459L202.811 425.28ZM214.988 418.716L215.975 418.878L218.232 405.121L217.245 404.959L216.258 404.797L214.001 418.554L214.988 418.716ZM217.245 404.959L218.232 405.121C218.305 404.672 218.673 404.329 219.127 404.287L219.036 403.292L218.945 402.296C217.584 402.42 216.479 403.449 216.258 404.797L217.245 404.959ZM219.036 403.292L219.127 404.287L242.335 402.164L242.244 401.169L242.153 400.173L218.945 402.296L219.036 403.292ZM242.244 401.169L242.335 402.164C242.789 402.123 243.214 402.395 243.368 402.826L244.31 402.491L245.252 402.155C244.793 400.865 243.518 400.048 242.153 400.173L242.244 401.169ZM244.31 402.491L243.368 402.826L247.902 415.573L248.844 415.238L249.786 414.903L245.252 402.155L244.31 402.491ZM248.844 415.238L248.669 416.223C253.322 417.052 257.907 418.432 262.322 420.372L262.724 419.456L263.126 418.54C258.564 416.536 253.826 415.111 249.02 414.254L248.844 415.238ZM262.724 419.456L263.308 420.268L274.202 412.445L273.619 411.633L273.036 410.821L262.141 418.644L262.724 419.456ZM273.619 411.633L274.202 412.445C274.572 412.18 275.075 412.198 275.426 412.489L276.066 411.721L276.705 410.952C275.655 410.078 274.146 410.023 273.036 410.821L273.619 411.633ZM276.066 411.721L275.426 412.489L293.336 427.398L293.976 426.63L294.616 425.861L276.705 410.952L276.066 411.721ZM260.233 449.196L260.873 448.428C245.3 435.465 222.168 437.58 209.204 453.153L209.973 453.792L210.742 454.432C222.998 439.709 244.87 437.709 259.593 449.965L260.233 449.196ZM209.973 453.792L209.204 453.153C196.241 468.725 198.356 491.859 213.929 504.822L214.569 504.053L215.208 503.285C200.485 491.028 198.485 469.156 210.742 454.432L209.973 453.792ZM214.569 504.053L213.929 504.822C229.502 517.785 252.635 515.669 265.599 500.097L264.83 499.457L264.061 498.817C251.805 513.541 229.932 515.541 215.208 503.285L214.569 504.053ZM264.83 499.457L265.599 500.097C278.562 484.524 276.445 461.391 260.873 448.428L260.233 449.196L259.593 449.965C274.317 462.221 276.318 484.093 264.061 498.817L264.83 499.457Z" fill="white" mask="url(#path-7-inside-4_1_158)"/>
<mask id="path-9-inside-5_1_158" fill="white">
<path d="M569.792 -125.464C570.693 -125.313 571.378 -124.572 571.455 -123.661L574.524 -87.6372C585.923 -82.2638 596.497 -75.5813 606.088 -67.813L639.949 -80.7932C640.799 -81.1194 641.763 -80.8295 642.292 -80.0879L679.429 -28.0546C679.96 -27.311 679.92 -26.3022 679.331 -25.6038L655.549 2.60655C659.483 13.9254 662.14 25.7734 663.375 37.9483L697.453 53.139C698.285 53.5101 698.762 54.3973 698.612 55.2959L688.079 118.349C687.928 119.25 687.185 119.934 686.275 120.012L647.924 123.279C642.799 133.633 636.584 143.279 629.451 152.097L643.409 188.507C643.735 189.358 643.446 190.322 642.704 190.851L590.671 227.988C589.927 228.519 588.918 228.478 588.22 227.89L557.617 202.092C547.409 205.535 536.781 207.943 525.878 209.209L509.476 246.009C509.105 246.841 508.217 247.317 507.319 247.167L444.266 236.634C443.365 236.484 442.68 235.742 442.603 234.832L439.16 194.427C429.432 189.686 420.321 183.985 411.926 177.467L374.107 191.966C373.257 192.292 372.293 192.002 371.764 191.261L334.626 139.228C334.096 138.484 334.136 137.475 334.725 136.777L360.397 106.321C356.702 95.9773 354.078 85.1819 352.634 74.0915L316.605 58.0323C315.773 57.6614 315.296 56.774 315.446 55.8754L325.979 -7.17761C326.13 -8.07852 326.873 -8.76313 327.783 -8.84068L365.883 -12.0878C370.877 -22.8514 377.033 -32.8885 384.169 -42.0668L370.649 -77.334C370.323 -78.1847 370.614 -79.1481 371.355 -79.6774L423.388 -116.815C424.131 -117.346 425.14 -117.305 425.839 -116.716L453.927 -93.0393C465.374 -97.2465 477.387 -100.139 489.751 -101.565L504.583 -134.839C504.955 -135.671 505.841 -136.147 506.739 -135.997L569.792 -125.464ZM522.371 -33.1901C473.022 -41.4338 426.334 -8.11104 418.09 41.2379C409.846 90.587 443.169 137.275 492.518 145.519C541.867 153.763 588.556 120.44 596.799 71.0911C605.043 21.742 571.72 -24.9464 522.371 -33.1901Z"/>
</mask>
<path d="M569.792 -125.464C570.693 -125.313 571.378 -124.572 571.455 -123.661L574.524 -87.6372C585.923 -82.2638 596.497 -75.5813 606.088 -67.813L639.949 -80.7932C640.799 -81.1194 641.763 -80.8295 642.292 -80.0879L679.429 -28.0546C679.96 -27.311 679.92 -26.3022 679.331 -25.6038L655.549 2.60655C659.483 13.9254 662.14 25.7734 663.375 37.9483L697.453 53.139C698.285 53.5101 698.762 54.3973 698.612 55.2959L688.079 118.349C687.928 119.25 687.185 119.934 686.275 120.012L647.924 123.279C642.799 133.633 636.584 143.279 629.451 152.097L643.409 188.507C643.735 189.358 643.446 190.322 642.704 190.851L590.671 227.988C589.927 228.519 588.918 228.478 588.22 227.89L557.617 202.092C547.409 205.535 536.781 207.943 525.878 209.209L509.476 246.009C509.105 246.841 508.217 247.317 507.319 247.167L444.266 236.634C443.365 236.484 442.68 235.742 442.603 234.832L439.16 194.427C429.432 189.686 420.321 183.985 411.926 177.467L374.107 191.966C373.257 192.292 372.293 192.002 371.764 191.261L334.626 139.228C334.096 138.484 334.136 137.475 334.725 136.777L360.397 106.321C356.702 95.9773 354.078 85.1819 352.634 74.0915L316.605 58.0323C315.773 57.6614 315.296 56.774 315.446 55.8754L325.979 -7.17761C326.13 -8.07852 326.873 -8.76313 327.783 -8.84068L365.883 -12.0878C370.877 -22.8514 377.033 -32.8885 384.169 -42.0668L370.649 -77.334C370.323 -78.1847 370.614 -79.1481 371.355 -79.6774L423.388 -116.815C424.131 -117.346 425.14 -117.305 425.839 -116.716L453.927 -93.0393C465.374 -97.2465 477.387 -100.139 489.751 -101.565L504.583 -134.839C504.955 -135.671 505.841 -136.147 506.739 -135.997L569.792 -125.464ZM522.371 -33.1901C473.022 -41.4338 426.334 -8.11104 418.09 41.2379C409.846 90.587 443.169 137.275 492.518 145.519C541.867 153.763 588.556 120.44 596.799 71.0911C605.043 21.742 571.72 -24.9464 522.371 -33.1901Z" fill="#251E54"/>
<path d="M569.792 -125.464L569.957 -126.45L569.957 -126.45L569.792 -125.464ZM571.455 -123.661L572.452 -123.746L572.452 -123.746L571.455 -123.661ZM574.524 -87.6372L573.527 -87.5523L573.576 -86.9783L574.097 -86.7326L574.524 -87.6372ZM606.088 -67.813L605.459 -67.0359L605.907 -66.6727L606.446 -66.8792L606.088 -67.813ZM639.949 -80.7932L640.306 -79.8595L640.306 -79.8595L639.949 -80.7932ZM642.292 -80.0879L643.106 -80.6688L643.106 -80.6688L642.292 -80.0879ZM679.429 -28.0546L680.244 -28.6354L680.243 -28.6356L679.429 -28.0546ZM679.331 -25.6038L680.096 -24.9592L680.096 -24.9592L679.331 -25.6038ZM655.549 2.60655L654.785 1.96201L654.418 2.3972L654.605 2.93486L655.549 2.60655ZM663.375 37.9483L662.38 38.0493L662.439 38.6258L662.968 38.8617L663.375 37.9483ZM697.453 53.139L697.86 52.2257L697.86 52.2257L697.453 53.139ZM688.079 118.349L689.065 118.514L689.065 118.514L688.079 118.349ZM686.275 120.012L686.36 121.008L686.36 121.008L686.275 120.012ZM647.924 123.279L647.839 122.282L647.277 122.33L647.027 122.835L647.924 123.279ZM629.451 152.097L628.674 151.468L628.311 151.916L628.518 152.455L629.451 152.097ZM643.409 188.507L644.343 188.15L644.343 188.15L643.409 188.507ZM642.704 190.851L642.123 190.037L642.704 190.851ZM590.671 227.988L591.252 228.802L591.252 228.802L590.671 227.988ZM588.22 227.89L587.576 228.654L587.576 228.655L588.22 227.89ZM557.617 202.092L558.261 201.327L557.831 200.964L557.297 201.144L557.617 202.092ZM525.878 209.209L525.763 208.216L525.197 208.282L524.965 208.802L525.878 209.209ZM509.476 246.009L510.389 246.416L510.389 246.416L509.476 246.009ZM507.319 247.167L507.154 248.154L507.154 248.154L507.319 247.167ZM444.266 236.634L444.101 237.621L444.101 237.621L444.266 236.634ZM442.603 234.832L441.606 234.917L441.606 234.917L442.603 234.832ZM439.16 194.427L440.157 194.342L440.108 193.777L439.598 193.528L439.16 194.427ZM411.926 177.467L412.539 176.677L412.094 176.332L411.568 176.533L411.926 177.467ZM374.107 191.966L374.465 192.9L374.465 192.9L374.107 191.966ZM371.764 191.261L370.95 191.842L370.95 191.842L371.764 191.261ZM334.626 139.228L333.812 139.808L333.812 139.808L334.626 139.228ZM334.725 136.777L333.96 136.132L333.96 136.132L334.725 136.777ZM360.397 106.321L361.162 106.965L361.533 106.526L361.339 105.984L360.397 106.321ZM352.634 74.0915L353.625 73.9623L353.553 73.4064L353.041 73.1781L352.634 74.0915ZM316.605 58.0323L316.198 58.9457L316.198 58.9457L316.605 58.0323ZM315.446 55.8754L314.46 55.7107L314.46 55.7108L315.446 55.8754ZM325.979 -7.17761L324.993 -7.34259L324.993 -7.34238L325.979 -7.17761ZM327.783 -8.84068L327.868 -7.84429L327.868 -7.84429L327.783 -8.84068ZM365.883 -12.0878L365.968 -11.0915L366.546 -11.1407L366.791 -11.667L365.883 -12.0878ZM384.169 -42.0668L384.958 -41.4531L385.304 -41.8983L385.102 -42.4248L384.169 -42.0668ZM370.649 -77.334L369.715 -76.9763L369.715 -76.9761L370.649 -77.334ZM371.355 -79.6774L370.775 -80.4913L370.774 -80.4913L371.355 -79.6774ZM423.388 -116.815L422.807 -117.629L422.807 -117.629L423.388 -116.815ZM425.839 -116.716L426.483 -117.481L426.483 -117.481L425.839 -116.716ZM453.927 -93.0393L453.282 -92.2747L453.726 -91.9003L454.272 -92.1007L453.927 -93.0393ZM489.751 -101.565L489.865 -100.571L490.432 -100.637L490.664 -101.158L489.751 -101.565ZM504.583 -134.839L503.67 -135.247L503.67 -135.246L504.583 -134.839ZM506.739 -135.997L506.904 -136.983L506.904 -136.983L506.739 -135.997ZM522.371 -33.1901L522.536 -34.1764L522.371 -33.1901ZM418.09 41.2379L417.104 41.0732L418.09 41.2379ZM492.518 145.519L492.353 146.505L492.518 145.519ZM596.799 71.0911L597.786 71.2559L596.799 71.0911ZM569.792 -125.464L569.627 -124.478C570.078 -124.402 570.42 -124.031 570.459 -123.577L571.455 -123.661L572.452 -123.746C572.336 -125.112 571.308 -126.225 569.957 -126.45L569.792 -125.464ZM571.455 -123.661L570.459 -123.577L573.527 -87.5523L574.524 -87.6372L575.52 -87.7221L572.452 -123.746L571.455 -123.661ZM574.524 -87.6372L574.097 -86.7326C585.423 -81.394 595.929 -74.7545 605.459 -67.0359L606.088 -67.813L606.718 -68.5901C597.065 -76.4082 586.423 -83.1337 574.95 -88.5417L574.524 -87.6372ZM606.088 -67.813L606.446 -66.8792L640.306 -79.8595L639.949 -80.7932L639.591 -81.7269L605.73 -68.7467L606.088 -67.813ZM639.949 -80.7932L640.306 -79.8595C640.732 -80.0226 641.214 -79.8776 641.478 -79.5069L642.292 -80.0879L643.106 -80.6688C642.312 -81.7814 640.867 -82.2161 639.591 -81.7269L639.949 -80.7932ZM642.292 -80.0879L641.478 -79.5069L678.616 -27.4737L679.429 -28.0546L680.243 -28.6356L643.106 -80.6688L642.292 -80.0879ZM679.429 -28.0546L678.615 -27.4739C678.881 -27.1017 678.86 -26.5971 678.566 -26.2483L679.331 -25.6038L680.096 -24.9592C680.979 -26.0072 681.039 -27.5204 680.244 -28.6354L679.429 -28.0546ZM679.331 -25.6038L678.566 -26.2483L654.785 1.96201L655.549 2.60655L656.314 3.2511L680.096 -24.9592L679.331 -25.6038ZM655.549 2.60655L654.605 2.93486C658.514 14.1812 661.153 25.9529 662.38 38.0493L663.375 37.9483L664.37 37.8474C663.127 25.594 660.453 13.6697 656.494 2.27824L655.549 2.60655ZM663.375 37.9483L662.968 38.8617L697.046 54.0524L697.453 53.139L697.86 52.2257L663.782 37.035L663.375 37.9483ZM697.453 53.139L697.046 54.0523C697.462 54.2378 697.7 54.6818 697.625 55.1311L698.612 55.2959L699.598 55.4607C699.823 54.1128 699.109 52.7823 697.86 52.2257L697.453 53.139ZM698.612 55.2959L697.625 55.1311L687.092 118.184L688.079 118.349L689.065 118.514L699.598 55.4607L698.612 55.2959ZM688.079 118.349L687.092 118.184C687.017 118.634 686.646 118.977 686.19 119.016L686.275 120.012L686.36 121.008C687.725 120.892 688.839 119.865 689.065 118.514L688.079 118.349ZM686.275 120.012L686.19 119.016L647.839 122.282L647.924 123.279L648.009 124.275L686.36 121.008L686.275 120.012ZM647.924 123.279L647.027 122.835C641.935 133.122 635.761 142.707 628.674 151.468L629.451 152.097L630.229 152.726C637.407 143.852 643.662 134.143 648.82 123.722L647.924 123.279ZM629.451 152.097L628.518 152.455L642.476 188.865L643.409 188.507L644.343 188.15L630.385 151.739L629.451 152.097ZM643.409 188.507L642.476 188.865C642.639 189.291 642.494 189.773 642.123 190.037L642.704 190.851L643.285 191.665C644.398 190.871 644.832 189.425 644.343 188.15L643.409 188.507ZM642.704 190.851L642.123 190.037L590.09 227.174L590.671 227.988L591.252 228.802L643.285 191.665L642.704 190.851ZM590.671 227.988L590.09 227.174C589.718 227.44 589.213 227.419 588.864 227.125L588.22 227.89L587.576 228.655C588.623 229.538 590.137 229.598 591.252 228.802L590.671 227.988ZM588.22 227.89L588.865 227.125L558.261 201.327L557.617 202.092L556.972 202.856L587.576 228.654L588.22 227.89ZM557.617 202.092L557.297 201.144C547.155 204.565 536.595 206.958 525.763 208.216L525.878 209.209L525.994 210.203C536.967 208.928 547.663 206.504 557.937 203.039L557.617 202.092ZM525.878 209.209L524.965 208.802L508.562 245.602L509.476 246.009L510.389 246.416L526.792 209.617L525.878 209.209ZM509.476 246.009L508.562 245.602C508.377 246.018 507.933 246.256 507.484 246.181L507.319 247.167L507.154 248.154C508.502 248.379 509.833 247.664 510.389 246.416L509.476 246.009ZM507.319 247.167L507.484 246.181L444.431 235.648L444.266 236.634L444.101 237.621L507.154 248.154L507.319 247.167ZM444.266 236.634L444.431 235.648C443.98 235.573 443.638 235.202 443.599 234.747L442.603 234.832L441.606 234.917C441.723 236.282 442.75 237.395 444.101 237.621L444.266 236.634ZM442.603 234.832L443.599 234.747L440.157 194.342L439.16 194.427L438.164 194.512L441.606 234.917L442.603 234.832ZM439.16 194.427L439.598 193.528C429.933 188.818 420.88 183.153 412.539 176.677L411.926 177.467L411.313 178.257C419.761 184.817 428.931 190.555 438.722 195.326L439.16 194.427ZM411.926 177.467L411.568 176.533L373.749 191.032L374.107 191.966L374.465 192.9L412.284 178.401L411.926 177.467ZM374.107 191.966L373.749 191.032C373.324 191.195 372.842 191.05 372.578 190.68L371.764 191.261L370.95 191.842C371.744 192.954 373.189 193.389 374.465 192.9L374.107 191.966ZM371.764 191.261L372.578 190.68L335.44 138.647L334.626 139.228L333.812 139.808L370.95 191.842L371.764 191.261ZM334.626 139.228L335.44 138.647C335.175 138.275 335.195 137.77 335.49 137.421L334.725 136.777L333.96 136.132C333.077 137.18 333.016 138.693 333.812 139.808L334.626 139.228ZM334.725 136.777L335.489 137.421L361.162 106.965L360.397 106.321L359.633 105.676L333.96 136.132L334.725 136.777ZM360.397 106.321L361.339 105.984C357.668 95.7073 355.061 84.9813 353.625 73.9623L352.634 74.0915L351.642 74.2206C353.096 85.3824 355.737 96.2473 359.456 106.657L360.397 106.321ZM352.634 74.0915L353.041 73.1781L317.012 57.1189L316.605 58.0323L316.198 58.9457L352.227 75.0049L352.634 74.0915ZM316.605 58.0323L317.012 57.119C316.596 56.9336 316.358 56.4896 316.433 56.0401L315.446 55.8754L314.46 55.7108C314.235 57.0584 314.949 58.3891 316.198 58.9457L316.605 58.0323ZM315.446 55.8754L316.433 56.0402L326.966 -7.01285L325.979 -7.17761L324.993 -7.34238L314.46 55.7107L315.446 55.8754ZM325.979 -7.17761L326.966 -7.01264C327.041 -7.46279 327.412 -7.80549 327.868 -7.84429L327.783 -8.84068L327.698 -9.83707C326.333 -9.72077 325.219 -8.69426 324.993 -7.34259L325.979 -7.17761ZM327.783 -8.84068L327.868 -7.84429L365.968 -11.0915L365.883 -12.0878L365.799 -13.0842L327.698 -9.83707L327.783 -8.84068ZM365.883 -12.0878L366.791 -11.667C371.752 -22.3612 377.869 -32.3336 384.958 -41.4531L384.169 -42.0668L383.379 -42.6806C376.198 -33.4433 370.002 -23.3417 364.976 -12.5087L365.883 -12.0878ZM384.169 -42.0668L385.102 -42.4248L371.583 -77.692L370.649 -77.334L369.715 -76.9761L383.235 -41.7089L384.169 -42.0668ZM370.649 -77.334L371.583 -77.6918C371.42 -78.1165 371.565 -78.5985 371.936 -78.8635L371.355 -79.6774L370.774 -80.4913C369.663 -79.6978 369.226 -78.2528 369.715 -76.9763L370.649 -77.334ZM371.355 -79.6774L371.936 -78.8635L423.969 -116.001L423.388 -116.815L422.807 -117.629L370.775 -80.4913L371.355 -79.6774ZM423.388 -116.815L423.969 -116.001C424.34 -116.266 424.845 -116.246 425.194 -115.952L425.839 -116.716L426.483 -117.481C425.435 -118.364 423.922 -118.425 422.807 -117.629L423.388 -116.815ZM425.839 -116.716L425.194 -115.952L453.282 -92.2747L453.927 -93.0393L454.571 -93.8039L426.483 -117.481L425.839 -116.716ZM453.927 -93.0393L454.272 -92.1007C465.646 -96.2809 477.581 -99.1543 489.865 -100.571L489.751 -101.565L489.636 -102.558C477.192 -101.123 465.103 -98.2121 453.582 -93.9779L453.927 -93.0393ZM489.751 -101.565L490.664 -101.158L505.497 -134.432L504.583 -134.839L503.67 -135.246L488.837 -101.972L489.751 -101.565ZM504.583 -134.839L505.497 -134.432C505.682 -134.848 506.125 -135.086 506.574 -135.011L506.739 -135.997L506.904 -136.983C505.556 -137.208 504.227 -136.495 503.67 -135.247L504.583 -134.839ZM506.739 -135.997L506.574 -135.011L569.628 -124.478L569.792 -125.464L569.957 -126.45L506.904 -136.983L506.739 -135.997ZM522.371 -33.1901L522.536 -34.1764C472.642 -42.5111 425.439 -8.82054 417.104 41.0732L418.09 41.2379L419.076 41.4027C427.229 -7.40154 473.402 -40.3564 522.206 -32.2038L522.371 -33.1901ZM418.09 41.2379L417.104 41.0732C408.769 90.967 442.459 138.171 492.353 146.505L492.518 145.519L492.683 144.533C443.878 136.38 410.924 90.2071 419.076 41.4027L418.09 41.2379ZM492.518 145.519L492.353 146.505C542.247 154.84 589.451 121.15 597.786 71.2559L596.799 71.0911L595.813 70.9263C587.66 119.731 541.487 152.686 492.683 144.533L492.518 145.519ZM596.799 71.0911L597.786 71.2559C606.12 21.3621 572.43 -25.8417 522.536 -34.1764L522.371 -33.1901L522.206 -32.2038C571.011 -24.0511 603.966 22.122 595.813 70.9263L596.799 71.0911Z" fill="white" mask="url(#path-9-inside-5_1_158)"/>
</g>
</svg>
