<svg width="1081" height="860" viewBox="0 0 1081 860" fill="none" xmlns="http://www.w3.org/2000/svg">
<path d="M618.203 690.182C626.823 673.929 646.986 667.742 663.239 676.362C664.829 677.206 666.322 678.162 667.715 679.212C673.699 682.854 678.424 688.615 680.641 695.839L718.34 818.7C723.145 834.358 714.347 850.947 698.688 855.752C683.029 860.557 666.44 851.758 661.635 836.1L644.991 781.856L621.606 825.944C617.049 834.536 609.267 840.312 600.541 842.578C592.048 845.596 582.365 845.179 573.774 840.623L532.164 818.553L548.227 870.899C553.031 886.558 544.233 903.147 528.574 907.952C512.915 912.756 496.327 903.958 491.522 888.299L455.927 772.299C450.449 762.711 449.851 750.612 455.407 740.136C464.028 723.883 484.191 717.696 500.443 726.316L577.39 767.128L618.203 690.182Z" fill="url(#paint0_linear_1_130)"/>
<path d="M395.968 700.162C374.965 745.678 369.999 798.797 385.862 850.492C420.067 961.964 538.162 1024.6 649.634 990.396C761.107 956.19 823.744 838.095 789.539 726.623C773.676 674.929 739.772 633.737 696.854 607.835L842.514 563.139C850.355 574.208 857.648 585.806 864.332 597.898L925.486 595.21C934.589 594.81 942.811 600.614 945.484 609.324L977.679 714.246C980.359 722.98 976.781 732.42 968.984 737.182L911.336 772.387C911.828 796.985 909.844 821.235 905.558 844.78L970.211 907.323C976.613 913.517 978.148 923.198 973.974 931.068L921.903 1029.24C917.831 1036.92 909.268 1041.09 900.715 1039.56L813.605 1023.98C796.316 1041.44 776.992 1056.93 755.842 1070L758.622 1133.22C759.022 1142.33 753.219 1150.55 744.509 1153.22L639.586 1185.42C630.852 1188.1 621.412 1184.52 616.651 1176.72L579.461 1115.83C559.018 1114.9 538.788 1111.97 519.007 1107.15L457.287 1174.11C451.128 1180.79 441.239 1182.48 433.211 1178.22L336.199 1126.77C328.132 1122.49 323.987 1113.29 326.127 1104.41L349.68 1006.69C335.649 991.623 322.762 975.194 311.235 957.529L239.041 960.703C229.938 961.103 221.715 955.3 219.042 946.59L186.847 841.667C184.167 832.933 187.746 823.493 195.543 818.731L251.614 784.489C250.458 771.195 250.031 757.966 250.305 744.859L395.968 700.162ZM381.256 115.761C411.221 106.567 442.968 123.405 452.163 153.37C457.61 171.123 453.92 189.499 443.777 203.442L461.978 262.758L704.744 188.266C715.303 185.026 726.491 190.959 729.731 201.519L755.608 285.85L778.447 278.842C789.006 275.602 800.194 281.535 803.434 292.095L838.317 405.776C841.557 416.336 835.623 427.523 825.064 430.764L802.225 437.772L804.572 445.419C805.368 448.012 805.608 450.644 805.365 453.186L820.457 502.371C820.619 502.899 820.322 503.458 819.794 503.62L235.724 682.842C235.196 683.004 234.637 682.708 234.475 682.18L214.789 618.027L190.509 625.477C179.95 628.717 168.762 622.783 165.522 612.224L130.639 498.542C127.399 487.983 133.332 476.796 143.892 473.555L169.626 465.659L143.749 381.328C140.509 370.768 146.442 359.581 157.002 356.341L396.869 282.737L378.667 223.416C362.453 217.561 349.094 204.418 343.648 186.668C334.453 156.703 351.29 124.957 381.256 115.761ZM330.947 416.157C300.981 425.353 284.143 457.099 293.338 487.064C302.533 517.03 334.28 533.868 364.245 524.673C394.21 515.478 411.048 483.732 401.853 453.767C392.658 423.801 360.912 406.963 330.947 416.157ZM613.087 329.581C583.122 338.777 566.285 370.523 575.479 400.488C584.674 430.453 616.42 447.291 646.386 438.097C676.351 428.902 693.189 397.156 683.994 367.19C674.799 337.225 643.053 320.386 613.087 329.581Z" fill="url(#paint1_linear_1_130)"/>
<defs>
<linearGradient id="paint0_linear_1_130" x1="854.616" y1="613.923" x2="663.654" y2="971.838" gradientUnits="userSpaceOnUse">
<stop offset="0.00961538" stop-color="#ECEAF6"/>
<stop offset="0.524135" stop-color="#A692C1"/>
<stop offset="0.777678" stop-color="#846BAE"/>
<stop offset="1" stop-color="#5560AB"/>
</linearGradient>
<linearGradient id="paint1_linear_1_130" x1="1375.41" y1="-152.098" x2="251.975" y2="1057.51" gradientUnits="userSpaceOnUse">
<stop offset="0.00961538" stop-color="#ECEAF6"/>
<stop offset="0.524135" stop-color="#A692C1"/>
<stop offset="0.777678" stop-color="#846BAE"/>
<stop offset="1" stop-color="#5560AB"/>
</linearGradient>
</defs>
</svg>
