<svg width="119" height="145" viewBox="0 0 119 145" fill="none" xmlns="http://www.w3.org/2000/svg">
<mask id="path-1-inside-1_2486_142" fill="white">
<path d="M40.9952 77.8348C38.057 82.9024 36.9009 89.0292 38.1851 95.2161C40.9547 108.556 54.0143 117.126 67.3543 114.357C80.6945 111.588 89.2639 98.5278 86.4951 85.1876C85.2106 79.0007 81.7117 73.8403 76.9991 70.3609L93.6051 66.9138C93.9842 67.4728 94.3506 68.0428 94.7012 68.6242L103.534 65.4401C104.757 64.9994 106.069 65.8252 106.202 67.1185L107.335 78.2275C107.39 78.7682 107.221 79.3085 106.87 79.7233L100.202 87.5925C100.3 91.8361 99.6892 95.9852 98.4601 99.9017L105.718 108.364C106.298 109.04 106.36 110.018 105.872 110.763L98.474 122.037C97.9973 122.763 97.106 123.098 96.2686 122.867L84.3071 119.557C82.6252 120.773 80.8334 121.86 78.9431 122.8L78.471 132.417C78.4262 133.327 77.7715 134.092 76.8793 134.277L63.8122 136.99C62.9177 137.175 62.01 136.731 61.6083 135.91L57.0137 126.523C55.3057 126.307 53.6245 125.976 51.9799 125.538L42.7886 133.815C42.1133 134.423 41.1126 134.5 40.3528 134.001L29.1893 126.675C28.4262 126.174 28.0991 125.219 28.3946 124.355L32.2947 112.95C30.7321 111.07 29.3397 109.03 28.1483 106.847L19.6468 106.43C18.7368 106.385 17.9716 105.73 17.7864 104.838L15.0738 91.7713C14.8886 90.8772 15.3325 89.9702 16.1526 89.5686L23.5294 85.9567C23.6298 84.3972 23.8259 82.8555 24.112 81.3396L40.9952 77.8348ZM45.6259 9.68496C49.2121 8.94053 52.7229 11.2443 53.4673 14.8304C53.9081 16.9544 53.2793 19.0516 51.9485 20.5635L53.4223 27.6631L74.9717 23.1898C80.3792 22.0673 85.6729 25.541 86.7955 30.9485L87.3332 33.5388L90.3958 32.903C91.4773 32.6785 92.5361 33.3733 92.7606 34.4548L95.7216 48.719C95.9459 49.8004 95.2513 50.8593 94.1699 51.0838L90.9332 51.7557L92.3474 58.5684C92.4595 59.1091 92.1122 59.6386 91.5716 59.7508L23.4028 73.9017C22.8622 74.0139 22.3328 73.6663 22.2204 73.1258L20.8062 66.313L17.5704 66.9847C16.4891 67.2092 15.4304 66.5142 15.2057 65.433L12.2446 51.1687C12.0201 50.0872 12.7149 49.0285 13.7964 48.804L17.2061 48.0962L16.6684 45.5059C15.5459 40.0983 19.0196 34.8046 24.4271 33.6821L45.6304 29.2806L44.1568 22.1819C42.3338 21.3247 40.9216 19.6505 40.4805 17.5263C39.7361 13.9403 42.04 10.4295 45.6259 9.68496ZM36.5123 44.0885C32.9262 44.8329 30.6224 48.3437 31.3668 51.9298C31.5368 52.748 31.8521 53.4986 32.2781 54.1623C33.1207 52.2426 34.9982 50.6923 37.4016 50.1933C40.1182 49.6295 42.7523 50.5656 44.2389 52.3905C44.5224 51.3945 44.5785 50.318 44.3536 49.2339C43.6092 45.6479 40.0983 43.3442 36.5123 44.0885ZM70.2778 37.0792C66.6917 37.8237 64.3879 41.3345 65.1323 44.9206C65.322 45.8336 65.6917 46.6631 66.1956 47.3808C66.9722 45.3315 68.9135 43.652 71.4339 43.1287C74.036 42.5886 76.5627 43.4246 78.0777 45.0998C78.2951 44.1839 78.322 43.2075 78.1182 42.2249C77.3738 38.6389 73.8638 36.3351 70.2778 37.0792Z"/>
</mask>
<path d="M40.9952 77.8348C38.057 82.9024 36.9009 89.0292 38.1851 95.2161C40.9547 108.556 54.0143 117.126 67.3543 114.357C80.6945 111.588 89.2639 98.5278 86.4951 85.1876C85.2106 79.0007 81.7117 73.8403 76.9991 70.3609L93.6051 66.9138C93.9842 67.4728 94.3506 68.0428 94.7012 68.6242L103.534 65.4401C104.757 64.9994 106.069 65.8252 106.202 67.1185L107.335 78.2275C107.39 78.7682 107.221 79.3085 106.87 79.7233L100.202 87.5925C100.3 91.8361 99.6892 95.9852 98.4601 99.9017L105.718 108.364C106.298 109.04 106.36 110.018 105.872 110.763L98.474 122.037C97.9973 122.763 97.106 123.098 96.2686 122.867L84.3071 119.557C82.6252 120.773 80.8334 121.86 78.9431 122.8L78.471 132.417C78.4262 133.327 77.7715 134.092 76.8793 134.277L63.8122 136.99C62.9177 137.175 62.01 136.731 61.6083 135.91L57.0137 126.523C55.3057 126.307 53.6245 125.976 51.9799 125.538L42.7886 133.815C42.1133 134.423 41.1126 134.5 40.3528 134.001L29.1893 126.675C28.4262 126.174 28.0991 125.219 28.3946 124.355L32.2947 112.95C30.7321 111.07 29.3397 109.03 28.1483 106.847L19.6468 106.43C18.7368 106.385 17.9716 105.73 17.7864 104.838L15.0738 91.7713C14.8886 90.8772 15.3325 89.9702 16.1526 89.5686L23.5294 85.9567C23.6298 84.3972 23.8259 82.8555 24.112 81.3396L40.9952 77.8348ZM45.6259 9.68496C49.2121 8.94053 52.7229 11.2443 53.4673 14.8304C53.9081 16.9544 53.2793 19.0516 51.9485 20.5635L53.4223 27.6631L74.9717 23.1898C80.3792 22.0673 85.6729 25.541 86.7955 30.9485L87.3332 33.5388L90.3958 32.903C91.4773 32.6785 92.5361 33.3733 92.7606 34.4548L95.7216 48.719C95.9459 49.8004 95.2513 50.8593 94.1699 51.0838L90.9332 51.7557L92.3474 58.5684C92.4595 59.1091 92.1122 59.6386 91.5716 59.7508L23.4028 73.9017C22.8622 74.0139 22.3328 73.6663 22.2204 73.1258L20.8062 66.313L17.5704 66.9847C16.4891 67.2092 15.4304 66.5142 15.2057 65.433L12.2446 51.1687C12.0201 50.0872 12.7149 49.0285 13.7964 48.804L17.2061 48.0962L16.6684 45.5059C15.5459 40.0983 19.0196 34.8046 24.4271 33.6821L45.6304 29.2806L44.1568 22.1819C42.3338 21.3247 40.9216 19.6505 40.4805 17.5263C39.7361 13.9403 42.04 10.4295 45.6259 9.68496ZM36.5123 44.0885C32.9262 44.8329 30.6224 48.3437 31.3668 51.9298C31.5368 52.748 31.8521 53.4986 32.2781 54.1623C33.1207 52.2426 34.9982 50.6923 37.4016 50.1933C40.1182 49.6295 42.7523 50.5656 44.2389 52.3905C44.5224 51.3945 44.5785 50.318 44.3536 49.2339C43.6092 45.6479 40.0983 43.3442 36.5123 44.0885ZM70.2778 37.0792C66.6917 37.8237 64.3879 41.3345 65.1323 44.9206C65.322 45.8336 65.6917 46.6631 66.1956 47.3808C66.9722 45.3315 68.9135 43.652 71.4339 43.1287C74.036 42.5886 76.5627 43.4246 78.0777 45.0998C78.2951 44.1839 78.322 43.2075 78.1182 42.2249C77.3738 38.6389 73.8638 36.3351 70.2778 37.0792Z" fill="url(#paint0_linear_2486_142)"/>
<path d="M40.9952 77.8348L42.7254 78.838L44.9697 74.9671L40.5887 75.8766L40.9952 77.8348ZM38.1851 95.2161L36.2269 95.6225L36.2269 95.6226L38.1851 95.2161ZM67.3543 114.357L67.7608 116.315L67.7608 116.315L67.3543 114.357ZM86.4951 85.1876L88.4533 84.7812L88.4533 84.7811L86.4951 85.1876ZM76.9991 70.3609L76.5926 68.4027L72.2115 69.3122L75.8112 71.9699L76.9991 70.3609ZM93.6051 66.9138L95.2604 65.7913L94.5091 64.6835L93.1986 64.9555L93.6051 66.9138ZM94.7012 68.6242L92.9884 69.6569L93.8357 71.0621L95.3794 70.5057L94.7012 68.6242ZM103.534 65.4401L102.856 63.5585L102.856 63.5586L103.534 65.4401ZM106.202 67.1185L108.191 66.9156L108.191 66.9148L106.202 67.1185ZM107.335 78.2275L109.324 78.0248L109.324 78.0246L107.335 78.2275ZM106.87 79.7233L108.396 81.0163L108.397 81.0157L106.87 79.7233ZM100.202 87.5925L98.6758 86.2995L98.1845 86.8793L98.2022 87.6391L100.202 87.5925ZM98.4601 99.9017L96.5519 99.3028L96.2196 100.362L96.942 101.204L98.4601 99.9017ZM105.718 108.364L107.237 107.062L107.236 107.062L105.718 108.364ZM105.872 110.763L107.544 111.86L107.545 111.859L105.872 110.763ZM98.474 122.037L100.146 123.134L100.146 123.134L98.474 122.037ZM96.2686 122.867L96.802 120.939L96.8019 120.939L96.2686 122.867ZM84.3071 119.557L84.8405 117.629L83.914 117.373L83.1351 117.936L84.3071 119.557ZM78.9431 122.8L78.0527 121.009L77.003 121.531L76.9455 122.702L78.9431 122.8ZM78.471 132.417L80.4685 132.515L80.4686 132.515L78.471 132.417ZM76.8793 134.277L77.2858 136.235L76.8793 134.277ZM63.8122 136.99L63.4057 135.031L63.8122 136.99ZM61.6083 135.91L59.812 136.789L59.812 136.789L61.6083 135.91ZM57.0137 126.523L58.81 125.644L58.3355 124.674L57.2646 124.539L57.0137 126.523ZM51.9799 125.538L52.4948 123.606L51.4472 123.327L50.6416 124.052L51.9799 125.538ZM42.7886 133.815L44.1268 135.301L44.1269 135.301L42.7886 133.815ZM40.3528 134.001L39.2555 135.673L39.2556 135.673L40.3528 134.001ZM29.1893 126.675L28.0915 128.347L28.0919 128.347L29.1893 126.675ZM28.3946 124.355L30.287 125.003L30.287 125.002L28.3946 124.355ZM32.2947 112.95L34.1871 113.598L34.5503 112.535L33.8328 111.672L32.2947 112.95ZM28.1483 106.847L29.9038 105.889L29.3664 104.905L28.2464 104.85L28.1483 106.847ZM19.6468 106.43L19.5484 108.428L19.5487 108.428L19.6468 106.43ZM15.0738 91.7713L13.1154 92.177L13.1156 92.1778L15.0738 91.7713ZM16.1526 89.5686L15.2731 87.7723L15.2729 87.7724L16.1526 89.5686ZM23.5294 85.9567L24.4089 87.7529L25.4508 87.2428L25.5253 86.0851L23.5294 85.9567ZM24.112 81.3396L23.7054 79.3813L22.3948 79.6534L22.1466 80.9687L24.112 81.3396ZM45.6259 9.68496L45.2194 7.7267L45.2193 7.72673L45.6259 9.68496ZM53.4673 14.8304L55.4256 14.424L55.4255 14.4239L53.4673 14.8304ZM51.9485 20.5635L50.4472 19.242L49.7872 19.9919L49.9903 20.97L51.9485 20.5635ZM53.4223 27.6631L51.464 28.0696L51.8705 30.0279L53.8288 29.6214L53.4223 27.6631ZM74.9717 23.1898L74.5652 21.2315L74.5652 21.2315L74.9717 23.1898ZM86.7955 30.9485L88.7537 30.542L88.7537 30.542L86.7955 30.9485ZM87.3332 33.5388L85.3749 33.9453L85.7814 35.9035L87.7397 35.497L87.3332 33.5388ZM90.3958 32.903L89.9893 30.9448L90.3958 32.903ZM92.7606 34.4548L94.7188 34.0483L92.7606 34.4548ZM95.7216 48.719L97.68 48.3129L97.6799 48.3125L95.7216 48.719ZM94.1699 51.0838L94.5764 53.042L94.1699 51.0838ZM90.9332 51.7557L90.5267 49.7974L88.5685 50.2039L88.975 52.1622L90.9332 51.7557ZM92.3474 58.5684L94.3059 58.1627L94.3057 58.1619L92.3474 58.5684ZM91.5716 59.7508L91.9781 61.7091L91.5716 59.7508ZM23.4028 73.9017L23.8091 75.86L23.8093 75.8599L23.4028 73.9017ZM22.2204 73.1258L20.2621 73.5323L20.2623 73.5331L22.2204 73.1258ZM20.8062 66.313L22.7644 65.9065L22.3579 63.9483L20.3996 64.3548L20.8062 66.313ZM17.5704 66.9847L17.9769 68.943L17.977 68.943L17.5704 66.9847ZM15.2057 65.433L13.2474 65.8395L13.2475 65.8399L15.2057 65.433ZM12.2446 51.1687L10.2864 51.5752L12.2446 51.1687ZM13.7964 48.804L13.3899 46.8457L13.3898 46.8457L13.7964 48.804ZM17.2061 48.0962L17.6126 50.0544L19.5709 49.6479L19.1644 47.6896L17.2061 48.0962ZM16.6684 45.5059L14.7101 45.9124L14.7102 45.9124L16.6684 45.5059ZM24.4271 33.6821L24.0206 31.7238L24.0206 31.7238L24.4271 33.6821ZM45.6304 29.2806L46.0369 31.2388L47.9951 30.8323L47.5886 28.8741L45.6304 29.2806ZM44.1568 22.1819L46.1151 21.7754L45.912 20.7972L45.0078 20.372L44.1568 22.1819ZM40.4805 17.5263L38.5222 17.9328L38.5223 17.9329L40.4805 17.5263ZM36.5123 44.0885L36.1059 42.1302L36.1058 42.1302L36.5123 44.0885ZM31.3668 51.9298L29.4086 52.3363L29.4086 52.3366L31.3668 51.9298ZM32.2781 54.1623L30.595 55.2426L32.6101 58.3822L34.1095 54.9661L32.2781 54.1623ZM37.4016 50.1933L36.9951 48.2351L36.9951 48.2351L37.4016 50.1933ZM44.2389 52.3905L42.6883 53.6537L45.1121 56.6291L46.1626 52.9379L44.2389 52.3905ZM44.3536 49.2339L46.312 48.8277L46.3119 48.8274L44.3536 49.2339ZM70.2778 37.0792L69.8715 35.1209L69.8713 35.121L70.2778 37.0792ZM65.1323 44.9206L63.1741 45.3271L63.1741 45.3273L65.1323 44.9206ZM66.1956 47.3808L64.5588 48.5301L66.7281 51.6196L68.0658 48.0895L66.1956 47.3808ZM71.4339 43.1287L71.0274 41.1705L71.0273 41.1705L71.4339 43.1287ZM78.0777 45.0998L76.5943 46.4413L79.1452 49.262L80.0236 45.5617L78.0777 45.0998ZM78.1182 42.2249L80.0765 41.8186L80.0765 41.8184L78.1182 42.2249ZM40.9952 77.8348L39.265 76.8317C36.0897 82.3082 34.8388 88.935 36.2269 95.6225L38.1851 95.2161L40.1434 94.8096C38.9631 89.1234 40.0243 83.4966 42.7254 78.838L40.9952 77.8348ZM38.1851 95.2161L36.2269 95.6226C39.221 110.044 53.3392 119.309 67.7608 116.315L67.3543 114.357L66.9479 112.399C54.6893 114.943 42.6884 107.068 40.1434 94.8095L38.1851 95.2161ZM67.3543 114.357L67.7608 116.315C82.1825 113.321 91.4466 99.2027 88.4533 84.7812L86.4951 85.1876L84.5368 85.5941C87.0812 97.8528 79.2064 109.854 66.9478 112.399L67.3543 114.357ZM86.4951 85.1876L88.4533 84.7811C87.065 78.0935 83.28 72.5122 78.1871 68.752L76.9991 70.3609L75.8112 71.9699C80.1434 75.1685 83.3563 79.9078 84.5368 85.5942L86.4951 85.1876ZM76.9991 70.3609L77.4056 72.3192L94.0116 68.872L93.6051 66.9138L93.1986 64.9555L76.5926 68.4027L76.9991 70.3609ZM93.6051 66.9138L91.9498 68.0363C92.3105 68.5683 92.6577 69.1083 92.9884 69.6569L94.7012 68.6242L96.4139 67.5914C96.0436 66.9773 95.6578 66.3774 95.2604 65.7913L93.6051 66.9138ZM94.7012 68.6242L95.3794 70.5057L104.212 67.3216L103.534 65.4401L102.856 63.5586L94.0229 66.7427L94.7012 68.6242ZM103.534 65.4401L104.212 67.3217L104.212 67.3222L106.202 67.1185L108.191 66.9148C107.926 64.3291 105.304 62.6768 102.856 63.5585L103.534 65.4401ZM106.202 67.1185L104.212 67.3215L105.345 78.4305L107.335 78.2275L109.324 78.0246L108.191 66.9156L106.202 67.1185ZM107.335 78.2275L105.345 78.4302C105.345 78.4289 105.345 78.4284 105.345 78.429C105.345 78.4297 105.344 78.4303 105.344 78.4308L106.87 79.7233L108.397 81.0157C109.097 80.188 109.435 79.1084 109.324 78.0248L107.335 78.2275ZM106.87 79.7233L105.344 78.4302L98.6758 86.2995L100.202 87.5925L101.727 88.8856L108.396 81.0163L106.87 79.7233ZM100.202 87.5925L98.2022 87.6391C98.2958 91.6597 97.7168 95.5909 96.5519 99.3028L98.4601 99.9017L100.368 100.501C101.662 96.3794 102.305 92.0124 102.201 87.546L100.202 87.5925ZM98.4601 99.9017L96.942 101.204L104.2 109.666L105.718 108.364L107.236 107.062L99.9782 98.5996L98.4601 99.9017ZM105.718 108.364L104.2 109.666L104.199 109.666L105.872 110.763L107.545 111.859C108.52 110.371 108.397 108.415 107.237 107.062L105.718 108.364ZM105.872 110.763L104.2 109.665L96.8019 120.939L98.474 122.037L100.146 123.134L107.544 111.86L105.872 110.763ZM98.474 122.037L96.802 120.939L96.802 120.939L96.2686 122.867L95.7352 124.794C97.4094 125.257 99.1922 124.587 100.146 123.134L98.474 122.037ZM96.2686 122.867L96.8019 120.939L84.8405 117.629L84.3071 119.557L83.7737 121.484L95.7352 124.794L96.2686 122.867ZM84.3071 119.557L83.1351 117.936C81.5415 119.089 79.8437 120.118 78.0527 121.009L78.9431 122.8L79.8336 124.591C81.823 123.601 83.709 122.458 85.4791 121.177L84.3071 119.557ZM78.9431 122.8L76.9455 122.702L76.4734 132.319L78.471 132.417L80.4686 132.515L80.9407 122.898L78.9431 122.8ZM78.471 132.417L76.4734 132.318L76.4728 132.319L76.8793 134.277L77.2858 136.235C79.0698 135.865 80.3791 134.335 80.4685 132.515L78.471 132.417ZM76.8793 134.277L76.4728 132.319L63.4057 135.031L63.8122 136.99L64.2187 138.948L77.2858 136.235L76.8793 134.277ZM63.8122 136.99L63.4057 135.031C63.4044 135.032 63.4051 135.031 63.4062 135.032C63.4067 135.032 63.4062 135.032 63.4052 135.031C63.4041 135.031 63.4039 135.03 63.4042 135.031C63.405 135.031 63.4052 135.032 63.4047 135.031L61.6083 135.91L59.812 136.789C60.6153 138.431 62.4297 139.319 64.2187 138.948L63.8122 136.99ZM61.6083 135.91L63.4047 135.031L58.81 125.644L57.0137 126.523L55.2173 127.402L59.812 136.789L61.6083 135.91ZM57.0137 126.523L57.2646 124.539C55.6466 124.334 54.0536 124.021 52.4948 123.606L51.9799 125.538L51.465 127.471C53.1954 127.932 54.9648 128.28 56.7627 128.507L57.0137 126.523ZM51.9799 125.538L50.6416 124.052L41.4503 132.328L42.7886 133.815L44.1269 135.301L53.3182 127.025L51.9799 125.538ZM42.7886 133.815L41.4504 132.328L41.45 132.329L40.3528 134.001L39.2556 135.673C40.7761 136.671 42.777 136.516 44.1268 135.301L42.7886 133.815ZM40.3528 134.001L41.4501 132.329L30.2866 125.003L29.1893 126.675L28.0919 128.347L39.2555 135.673L40.3528 134.001ZM29.1893 126.675L30.2871 125.003L30.287 125.003L28.3946 124.355L26.5022 123.708C25.9113 125.436 26.5653 127.344 28.0915 128.347L29.1893 126.675ZM28.3946 124.355L30.287 125.002L34.1871 113.598L32.2947 112.95L30.4023 112.303L26.5022 123.708L28.3946 124.355ZM32.2947 112.95L33.8328 111.672C32.3516 109.89 31.0324 107.956 29.9038 105.889L28.1483 106.847L26.3929 107.806C27.6471 110.103 29.1125 112.251 30.7566 114.229L32.2947 112.95ZM28.1483 106.847L28.2464 104.85L19.7449 104.432L19.6468 106.43L19.5487 108.428L28.0502 108.845L28.1483 106.847ZM19.6468 106.43L19.7452 104.432L19.7446 104.432L17.7864 104.838L15.8281 105.245C16.1985 107.029 17.7283 108.338 19.5484 108.428L19.6468 106.43ZM17.7864 104.838L19.7446 104.432L17.0321 91.3648L15.0738 91.7713L13.1156 92.1778L15.8281 105.245L17.7864 104.838ZM15.0738 91.7713L17.0323 91.3656L17.0322 91.3647L16.1526 89.5686L15.2729 87.7724C13.632 88.576 12.7451 90.3895 13.1154 92.177L15.0738 91.7713ZM16.1526 89.5686L17.032 91.3648L24.4089 87.7529L23.5294 85.9567L22.65 84.1604L15.2731 87.7723L16.1526 89.5686ZM23.5294 85.9567L25.5253 86.0851C25.6204 84.608 25.8061 83.1473 26.0773 81.7104L24.112 81.3396L22.1466 80.9687C21.8457 82.5638 21.6392 84.1864 21.5336 85.8282L23.5294 85.9567ZM24.112 81.3396L24.5185 83.2978L41.4017 79.7931L40.9952 77.8348L40.5887 75.8766L23.7054 79.3813L24.112 81.3396ZM45.6259 9.68496L46.0325 11.6432C48.5371 11.1233 50.9891 12.7323 51.509 15.2369L53.4673 14.8304L55.4255 14.4239C54.4566 9.75628 49.8871 6.75777 45.2194 7.7267L45.6259 9.68496ZM53.4673 14.8304L51.509 15.2368C51.8165 16.7187 51.3806 18.1816 50.4472 19.242L51.9485 20.5635L53.4498 21.8849C55.178 19.9215 55.9996 17.1901 55.4256 14.424L53.4673 14.8304ZM51.9485 20.5635L49.9903 20.97L51.464 28.0696L53.4223 27.6631L55.3805 27.2566L53.9068 20.157L51.9485 20.5635ZM53.4223 27.6631L53.8288 29.6214L75.3782 25.148L74.9717 23.1898L74.5652 21.2315L53.0158 25.7048L53.4223 27.6631ZM74.9717 23.1898L75.3781 25.148C79.7042 24.2501 83.9392 27.0291 84.8372 31.355L86.7955 30.9485L88.7537 30.542C87.4067 24.053 81.0541 19.8846 74.5652 21.2315L74.9717 23.1898ZM86.7955 30.9485L84.8372 31.355L85.3749 33.9453L87.3332 33.5388L89.2914 33.1323L88.7537 30.542L86.7955 30.9485ZM87.3332 33.5388L87.7397 35.497L90.8023 34.8613L90.3958 32.903L89.9893 30.9448L86.9267 31.5805L87.3332 33.5388ZM90.3958 32.903L90.8023 34.8613L90.8023 34.8613L92.7606 34.4548L94.7188 34.0483C94.2698 31.8852 92.1523 30.4958 89.9893 30.9448L90.3958 32.903ZM92.7606 34.4548L90.8023 34.8613L93.7634 49.1255L95.7216 48.719L97.6799 48.3125L94.7188 34.0483L92.7606 34.4548ZM95.7216 48.719L93.7633 49.1251L93.7634 49.1255L94.1699 51.0838L94.5764 53.042C96.7397 52.593 98.1284 50.4752 97.68 48.3129L95.7216 48.719ZM94.1699 51.0838L93.7634 49.1255L90.5267 49.7974L90.9332 51.7557L91.3397 53.7139L94.5764 53.042L94.1699 51.0838ZM90.9332 51.7557L88.975 52.1622L90.3892 58.9749L92.3474 58.5684L94.3057 58.1619L92.8915 51.3492L90.9332 51.7557ZM92.3474 58.5684L90.389 58.9742C90.2772 58.4346 90.6234 57.905 91.1651 57.7926L91.5716 59.7508L91.9781 61.7091C93.601 61.3722 94.6417 59.7836 94.3059 58.1627L92.3474 58.5684ZM91.5716 59.7508L91.1651 57.7926L22.9963 71.9434L23.4028 73.9017L23.8093 75.8599L91.9781 61.7091L91.5716 59.7508ZM23.4028 73.9017L22.9964 71.9434C23.5378 71.8311 24.0662 72.1788 24.1785 72.7186L22.2204 73.1258L20.2623 73.5331C20.5994 75.1538 22.1865 76.1967 23.8091 75.86L23.4028 73.9017ZM22.2204 73.1258L24.1786 72.7193L22.7644 65.9065L20.8062 66.313L18.8479 66.7196L20.2621 73.5323L22.2204 73.1258ZM20.8062 66.313L20.3996 64.3548L17.1639 65.0265L17.5704 66.9847L17.977 68.943L21.2127 68.2713L20.8062 66.313ZM17.5704 66.9847L17.164 65.0265L17.1639 65.0261L15.2057 65.433L13.2475 65.8399C13.6968 68.002 15.8137 69.3919 17.9769 68.943L17.5704 66.9847ZM15.2057 65.433L17.1639 65.0265L14.2029 50.7622L12.2446 51.1687L10.2864 51.5752L13.2474 65.8395L15.2057 65.433ZM12.2446 51.1687L14.2029 50.7622L14.203 50.7622L13.7964 48.804L13.3898 46.8457C11.227 47.2948 9.83735 49.4122 10.2864 51.5752L12.2446 51.1687ZM13.7964 48.804L14.2029 50.7622L17.6126 50.0544L17.2061 48.0962L16.7996 46.1379L13.3899 46.8457L13.7964 48.804ZM17.2061 48.0962L19.1644 47.6896L18.6267 45.0994L16.6684 45.5059L14.7102 45.9124L15.2479 48.5027L17.2061 48.0962ZM16.6684 45.5059L18.6267 45.0994C17.7287 40.7734 20.5076 36.5384 24.8337 35.6403L24.4271 33.6821L24.0206 31.7238C17.5316 33.0709 13.3631 39.4233 14.7101 45.9124L16.6684 45.5059ZM24.4271 33.6821L24.8336 35.6403L46.0369 31.2388L45.6304 29.2806L45.2239 27.3223L24.0206 31.7238L24.4271 33.6821ZM45.6304 29.2806L47.5886 28.8741L46.1151 21.7754L44.1568 22.1819L42.1986 22.5884L43.6721 29.6871L45.6304 29.2806ZM44.1568 22.1819L45.0078 20.372C43.7292 19.7708 42.7464 18.6017 42.4387 17.1197L40.4805 17.5263L38.5223 17.9329C39.0967 20.6993 40.9384 22.8787 43.3058 23.9918L44.1568 22.1819ZM40.4805 17.5263L42.4387 17.1198C41.9189 14.6154 43.528 12.1633 46.0326 11.6432L45.6259 9.68496L45.2193 7.72673C40.5521 8.69585 37.5533 13.2652 38.5222 17.9328L40.4805 17.5263ZM36.5123 44.0885L36.1058 42.1302C31.4382 43.0992 28.4396 47.6687 29.4086 52.3363L31.3668 51.9298L33.3251 51.5233C32.8052 49.0187 34.4142 46.5667 36.9188 46.0467L36.5123 44.0885ZM31.3668 51.9298L29.4086 52.3366C29.6296 53.4005 30.0404 54.3785 30.595 55.2426L32.2781 54.1623L33.9612 53.082C33.6638 52.6186 33.4439 52.0955 33.325 51.523L31.3668 51.9298ZM32.2781 54.1623L34.1095 54.9661C34.676 53.6753 35.9988 52.5272 37.8081 52.1516L37.4016 50.1933L36.9951 48.2351C33.9976 48.8573 31.5654 50.8099 30.4467 53.3585L32.2781 54.1623ZM37.4016 50.1933L37.808 52.1516C39.8615 51.7254 41.7154 52.4593 42.6883 53.6537L44.2389 52.3905L45.7896 51.1274C43.7893 48.6718 40.3749 47.5336 36.9951 48.2351L37.4016 50.1933ZM44.2389 52.3905L46.1626 52.9379C46.5313 51.6421 46.6046 50.2385 46.312 48.8277L44.3536 49.2339L42.3953 49.6402C42.5525 50.3976 42.5134 51.1469 42.3153 51.8431L44.2389 52.3905ZM44.3536 49.2339L46.3119 48.8274C45.343 44.1598 40.7733 41.1615 36.1059 42.1302L36.5123 44.0885L36.9187 46.0467C39.4234 45.5269 41.8755 47.136 42.3954 49.6404L44.3536 49.2339ZM70.2778 37.0792L69.8713 35.121C65.2037 36.09 62.2052 40.6594 63.1741 45.3271L65.1323 44.9206L67.0906 44.5141C66.5707 42.0095 68.1797 39.5574 70.6843 39.0375L70.2778 37.0792ZM65.1323 44.9206L63.1741 45.3273C63.4205 46.5133 63.9019 47.5946 64.5588 48.5301L66.1956 47.3808L67.8324 46.2315C67.4815 45.7317 67.2235 45.1539 67.0906 44.5138L65.1323 44.9206ZM66.1956 47.3808L68.0658 48.0895C68.583 46.7247 69.9407 45.4814 71.8404 45.087L71.4339 43.1287L71.0273 41.1705C67.8863 41.8226 65.3613 43.9383 64.3254 46.6721L66.1956 47.3808ZM71.4339 43.1287L71.8404 45.087C73.804 44.6794 75.5926 45.3337 76.5943 46.4413L78.0777 45.0998L79.561 43.7583C77.5328 41.5156 74.268 40.4978 71.0274 41.1705L71.4339 43.1287ZM78.0777 45.0998L80.0236 45.5617C80.3066 44.3695 80.3416 43.0967 80.0765 41.8186L78.1182 42.2249L76.1599 42.6312C76.3024 43.3182 76.2836 43.9982 76.1317 44.6379L78.0777 45.0998ZM78.1182 42.2249L80.0765 41.8184C79.1076 37.1511 74.5391 34.1524 69.8715 35.1209L70.2778 37.0792L70.6842 39.0375C73.1885 38.5178 75.64 40.1267 76.16 42.6314L78.1182 42.2249Z" fill="white" mask="url(#path-1-inside-1_2486_142)"/>
<mask id="path-3-inside-2_2486_142" fill="white">
<path d="M46.258 9.35689C49.8441 8.61246 53.3549 10.9162 54.0993 14.5024C54.5401 16.6263 53.9113 18.7235 52.5805 20.2354L54.0543 27.335L75.6037 22.8617C81.0112 21.7393 86.3049 25.2129 87.4275 30.6204L87.9652 33.2107L91.0278 32.575C92.1093 32.3504 93.1681 33.0452 93.3926 34.1267L96.3536 48.391C96.5779 49.4723 95.8833 50.5312 94.8019 50.7557L91.5652 51.4276L92.9795 58.2404C93.0915 58.781 92.7442 59.3105 92.2036 59.4228L24.0348 73.5736C23.4942 73.6858 22.9648 73.3383 22.8524 72.7978L21.4382 65.985L18.2025 66.6567C17.1211 66.8811 16.0624 66.1862 15.8377 65.1049L12.8766 50.8407C12.6521 49.7592 13.3469 48.7004 14.4284 48.4759L17.8381 47.7681L17.3004 45.1778C16.1779 39.7703 19.6516 34.4766 25.0592 33.354L46.2624 28.9525L44.7888 21.8539C42.9658 20.9967 41.5536 19.3224 41.1125 17.1982C40.3681 13.6122 42.6721 10.1015 46.258 9.35689ZM37.1443 43.7604C33.5582 44.5049 31.2544 48.0156 31.9989 51.6017C32.0233 51.7195 32.0509 51.8358 32.0813 51.9507C34.3604 50.938 37.0786 50.0635 40.0464 49.4475C41.7319 49.0976 43.3769 48.8563 44.9404 48.7168C44.1137 45.2395 40.6668 43.0293 37.1443 43.7604ZM70.9098 36.7512C67.3268 37.495 65.0238 41 65.7624 44.5829C67.8227 43.8502 70.1163 43.2054 72.5574 42.6986C74.6968 42.2545 76.7745 41.9529 78.7241 41.7855C77.9309 38.2634 74.4585 36.0148 70.9098 36.7512Z"/>
</mask>
<path d="M46.258 9.35689C49.8441 8.61246 53.3549 10.9162 54.0993 14.5024C54.5401 16.6263 53.9113 18.7235 52.5805 20.2354L54.0543 27.335L75.6037 22.8617C81.0112 21.7393 86.3049 25.2129 87.4275 30.6204L87.9652 33.2107L91.0278 32.575C92.1093 32.3504 93.1681 33.0452 93.3926 34.1267L96.3536 48.391C96.5779 49.4723 95.8833 50.5312 94.8019 50.7557L91.5652 51.4276L92.9795 58.2404C93.0915 58.781 92.7442 59.3105 92.2036 59.4228L24.0348 73.5736C23.4942 73.6858 22.9648 73.3383 22.8524 72.7978L21.4382 65.985L18.2025 66.6567C17.1211 66.8811 16.0624 66.1862 15.8377 65.1049L12.8766 50.8407C12.6521 49.7592 13.3469 48.7004 14.4284 48.4759L17.8381 47.7681L17.3004 45.1778C16.1779 39.7703 19.6516 34.4766 25.0592 33.354L46.2624 28.9525L44.7888 21.8539C42.9658 20.9967 41.5536 19.3224 41.1125 17.1982C40.3681 13.6122 42.6721 10.1015 46.258 9.35689ZM37.1443 43.7604C33.5582 44.5049 31.2544 48.0156 31.9989 51.6017C32.0233 51.7195 32.0509 51.8358 32.0813 51.9507C34.3604 50.938 37.0786 50.0635 40.0464 49.4475C41.7319 49.0976 43.3769 48.8563 44.9404 48.7168C44.1137 45.2395 40.6668 43.0293 37.1443 43.7604ZM70.9098 36.7512C67.3268 37.495 65.0238 41 65.7624 44.5829C67.8227 43.8502 70.1163 43.2054 72.5574 42.6986C74.6968 42.2545 76.7745 41.9529 78.7241 41.7855C77.9309 38.2634 74.4585 36.0148 70.9098 36.7512Z" fill="url(#paint1_linear_2486_142)"/>
<path d="M46.258 9.35689L46.0547 8.37776L46.0547 8.37777L46.258 9.35689ZM54.0993 14.5024L55.0784 14.2992L55.0784 14.2991L54.0993 14.5024ZM52.5805 20.2354L51.8299 19.5747L51.4999 19.9496L51.6014 20.4387L52.5805 20.2354ZM54.0543 27.335L53.0752 27.5383L53.2784 28.5174L54.2576 28.3142L54.0543 27.335ZM75.6037 22.8617L75.4005 21.8826L75.4004 21.8826L75.6037 22.8617ZM87.4275 30.6204L88.4066 30.4172L88.4066 30.4172L87.4275 30.6204ZM87.9652 33.2107L86.9861 33.414L87.1893 34.3931L88.1684 34.1898L87.9652 33.2107ZM91.0278 32.575L90.8246 31.5958L91.0278 32.575ZM96.3536 48.391L97.3328 48.1879L97.3328 48.1877L96.3536 48.391ZM94.8019 50.7557L95.0051 51.7348L94.8019 50.7557ZM91.5652 51.4276L91.362 50.4485L90.3828 50.6517L90.5861 51.6309L91.5652 51.4276ZM92.9795 58.2404L93.9587 58.0375L93.9586 58.0371L92.9795 58.2404ZM92.2036 59.4228L92.4068 60.4019L92.2036 59.4228ZM24.0348 73.5736L24.238 74.5528L24.238 74.5528L24.0348 73.5736ZM22.8524 72.7978L21.8733 73.001L21.8734 73.0014L22.8524 72.7978ZM21.4382 65.985L22.4173 65.7817L22.214 64.8026L21.2349 65.0059L21.4382 65.985ZM18.2025 66.6567L18.4057 67.6358L18.4057 67.6358L18.2025 66.6567ZM15.8377 65.1049L14.8586 65.3082L14.8586 65.3084L15.8377 65.1049ZM14.4284 48.4759L14.2251 47.4968L14.2251 47.4968L14.4284 48.4759ZM17.8381 47.7681L18.0414 48.7472L19.0205 48.544L18.8173 47.5648L17.8381 47.7681ZM17.3004 45.1778L16.3213 45.381L16.3213 45.3811L17.3004 45.1778ZM25.0592 33.354L24.8559 32.3749L24.8559 32.3749L25.0592 33.354ZM46.2624 28.9525L46.4657 29.9316L47.4448 29.7284L47.2415 28.7493L46.2624 28.9525ZM44.7888 21.8539L45.768 21.6506L45.6664 21.1615L45.2143 20.9489L44.7888 21.8539ZM41.1125 17.1982L40.1334 17.4015L40.1334 17.4015L41.1125 17.1982ZM37.1443 43.7604L36.9411 42.7813L36.9411 42.7813L37.1443 43.7604ZM31.9989 51.6017L31.0197 51.805L31.0198 51.8051L31.9989 51.6017ZM32.0813 51.9507L31.1144 52.2058L31.414 53.3414L32.4873 52.8645L32.0813 51.9507ZM40.0464 49.4475L39.8431 48.4683L39.8431 48.4683L40.0464 49.4475ZM44.9404 48.7168L45.0293 49.7128L46.1807 49.6101L45.9133 48.4855L44.9404 48.7168ZM70.9098 36.7512L70.7067 35.772L70.7066 35.772L70.9098 36.7512ZM65.7624 44.5829L64.783 44.7848L65.0149 45.9101L66.0975 45.5251L65.7624 44.5829ZM72.5574 42.6986L72.3541 41.7195L72.3541 41.7195L72.5574 42.6986ZM78.7241 41.7855L78.8097 42.7819L79.9515 42.6839L79.6997 41.5658L78.7241 41.7855ZM46.258 9.35689L46.4612 10.336C49.5066 9.70384 52.488 11.6602 53.1202 14.7056L54.0993 14.5024L55.0784 14.2991C54.2218 10.1722 50.1816 7.52108 46.0547 8.37776L46.258 9.35689ZM54.0993 14.5024L53.1202 14.7056C53.4943 16.5084 52.962 18.2885 51.8299 19.5747L52.5805 20.2354L53.3312 20.8961C54.8606 19.1585 55.5859 16.7442 55.0784 14.2992L54.0993 14.5024ZM52.5805 20.2354L51.6014 20.4387L53.0752 27.5383L54.0543 27.335L55.0334 27.1318L53.5596 20.0322L52.5805 20.2354ZM54.0543 27.335L54.2576 28.3142L75.8069 23.8408L75.6037 22.8617L75.4004 21.8826L53.851 26.3559L54.0543 27.335ZM75.6037 22.8617L75.8069 23.8408C80.6737 22.8306 85.4381 25.957 86.4483 30.8237L87.4275 30.6204L88.4066 30.4172C87.1718 24.4689 81.3487 20.6479 75.4005 21.8826L75.6037 22.8617ZM87.4275 30.6204L86.4483 30.8237L86.9861 33.414L87.9652 33.2107L88.9443 33.0075L88.4066 30.4172L87.4275 30.6204ZM87.9652 33.2107L88.1684 34.1898L91.2311 33.5541L91.0278 32.575L90.8246 31.5958L87.7619 32.2316L87.9652 33.2107ZM91.0278 32.575L91.2311 33.5541C91.7718 33.4418 92.3012 33.7892 92.4135 34.33L93.3926 34.1267L94.3717 33.9234C94.0349 32.3012 92.4468 31.2591 90.8246 31.5958L91.0278 32.575ZM93.3926 34.1267L92.4135 34.33L95.3745 48.5942L96.3536 48.391L97.3328 48.1877L94.3717 33.9234L93.3926 34.1267ZM96.3536 48.391L95.3745 48.594C95.4866 49.135 95.1391 49.6644 94.5986 49.7766L94.8019 50.7557L95.0051 51.7348C96.6275 51.3981 97.6691 49.8097 97.3328 48.1879L96.3536 48.391ZM94.8019 50.7557L94.5986 49.7766L91.362 50.4485L91.5652 51.4276L91.7685 52.4067L95.0051 51.7348L94.8019 50.7557ZM91.5652 51.4276L90.5861 51.6309L92.0003 58.4436L92.9795 58.2404L93.9586 58.0371L92.5444 51.2244L91.5652 51.4276ZM92.9795 58.2404L92.0003 58.4433L92.0003 58.4436L92.2036 59.4228L92.4068 60.4019C93.4886 60.1773 94.1826 59.1183 93.9587 58.0375L92.9795 58.2404ZM92.2036 59.4228L92.0003 58.4436L23.8315 72.5945L24.0348 73.5736L24.238 74.5528L92.4068 60.4019L92.2036 59.4228ZM24.0348 73.5736L23.8316 72.5945L23.8315 72.5941L22.8524 72.7978L21.8734 73.0014C22.0981 74.082 23.1564 74.7772 24.238 74.5528L24.0348 73.5736ZM22.8524 72.7978L23.8315 72.5945L22.4173 65.7817L21.4382 65.985L20.459 66.1882L21.8733 73.001L22.8524 72.7978ZM21.4382 65.985L21.2349 65.0059L17.9992 65.6775L18.2025 66.6567L18.4057 67.6358L21.6414 66.9641L21.4382 65.985ZM18.2025 66.6567L17.9992 65.6775C17.4588 65.7897 16.9292 65.4423 16.8168 64.9015L15.8377 65.1049L14.8586 65.3084C15.1956 66.9301 16.7834 67.9725 18.4057 67.6358L18.2025 66.6567ZM15.8377 65.1049L16.8168 64.9017L13.8558 50.6374L12.8766 50.8407L11.8975 51.0439L14.8586 65.3082L15.8377 65.1049ZM12.8766 50.8407L13.8558 50.6374C13.7435 50.0967 14.0909 49.5673 14.6317 49.455L14.4284 48.4759L14.2251 47.4968C12.603 47.8336 11.5608 49.4216 11.8975 51.0439L12.8766 50.8407ZM14.4284 48.4759L14.6316 49.455L18.0414 48.7472L17.8381 47.7681L17.6349 46.789L14.2251 47.4968L14.4284 48.4759ZM17.8381 47.7681L18.8173 47.5648L18.2795 44.9745L17.3004 45.1778L16.3213 45.3811L16.859 47.9713L17.8381 47.7681ZM17.3004 45.1778L18.2795 44.9746C17.2693 40.1078 20.3957 35.3434 25.2624 34.3331L25.0592 33.354L24.8559 32.3749C18.9076 33.6097 15.0865 39.4328 16.3213 45.381L17.3004 45.1778ZM25.0592 33.354L25.2624 34.3331L46.4657 29.9316L46.2624 28.9525L46.0592 27.9734L24.8559 32.3749L25.0592 33.354ZM46.2624 28.9525L47.2415 28.7493L45.768 21.6506L44.7888 21.8539L43.8097 22.0571L45.2833 29.1558L46.2624 28.9525ZM44.7888 21.8539L45.2143 20.9489C43.6635 20.2197 42.466 18.798 42.0916 16.9949L41.1125 17.1982L40.1334 17.4015C40.6411 19.8469 42.2681 21.7736 44.3633 22.7588L44.7888 21.8539ZM41.1125 17.1982L42.0916 16.995C41.4595 13.9498 43.416 10.9683 46.4613 10.336L46.258 9.35689L46.0547 8.37777C41.9281 9.23463 39.2767 13.2747 40.1334 17.4015L41.1125 17.1982ZM37.1443 43.7604L36.9411 42.7813C32.8142 43.638 30.163 47.6781 31.0197 51.805L31.9989 51.6017L32.978 51.3985C32.3458 48.3532 34.3022 45.3717 37.3476 44.7395L37.1443 43.7604ZM31.9989 51.6017L31.0198 51.8051C31.048 51.9413 31.0798 52.0749 31.1144 52.2058L32.0813 51.9507L33.0482 51.6955C33.0221 51.5967 32.9986 51.4977 32.9779 51.3984L31.9989 51.6017ZM32.0813 51.9507L32.4873 52.8645C34.6952 51.8835 37.3446 51.0296 40.2496 50.4266L40.0464 49.4475L39.8431 48.4683C36.8125 49.0974 34.0256 49.9925 31.6752 51.0368L32.0813 51.9507ZM40.0464 49.4475L40.2496 50.4266C41.8983 50.0843 43.5051 49.8488 45.0293 49.7128L44.9404 48.7168L44.8516 47.7207C43.2486 47.8637 41.5654 48.1108 39.8431 48.4683L40.0464 49.4475ZM44.9404 48.7168L45.9133 48.4855C44.9619 44.4838 40.9954 41.9398 36.9411 42.7813L37.1443 43.7604L37.3475 44.7395C40.3382 44.1188 43.2655 45.9952 43.9675 48.9481L44.9404 48.7168ZM70.9098 36.7512L70.7066 35.772C66.5834 36.628 63.933 40.6615 64.783 44.7848L65.7624 44.5829L66.7418 44.381C66.1146 41.3385 68.0703 38.362 71.1131 37.7303L70.9098 36.7512ZM65.7624 44.5829L66.0975 45.5251C68.1126 44.8085 70.3619 44.1757 72.7606 43.6778L72.5574 42.6986L72.3541 41.7195C69.8707 42.235 67.5329 42.8919 65.4273 43.6408L65.7624 44.5829ZM72.5574 42.6986L72.7606 43.6778C74.8627 43.2414 76.9011 42.9457 78.8097 42.7819L78.7241 41.7855L78.6386 40.7892C76.648 40.9601 74.5309 41.2676 72.3541 41.7195L72.5574 42.6986ZM78.7241 41.7855L79.6997 41.5658C78.7868 37.5126 74.791 34.9245 70.7067 35.772L70.9098 36.7512L71.113 37.7303C74.1261 37.1051 77.0749 39.0142 77.7486 42.0053L78.7241 41.7855Z" fill="white" mask="url(#path-3-inside-2_2486_142)"/>
<path d="M83.5806 44.1882C80.4999 43.1782 80.2777 39.5131 83.1603 32.5329C91.2109 40.8173 89.3959 41.7046 88.3721 43.1935C87.8924 43.8911 85.0108 44.6571 83.5806 44.1882Z" fill="#F6EBFF"/>
<defs>
<linearGradient id="paint0_linear_2486_142" x1="46.1399" y1="9.57826" x2="72.2261" y2="135.243" gradientUnits="userSpaceOnUse">
<stop stop-color="#6DA0E1"/>
<stop offset="0.466346" stop-color="#5B62B3"/>
<stop offset="1" stop-color="#ECA6BB"/>
</linearGradient>
<linearGradient id="paint1_linear_2486_142" x1="46.258" y1="9.35689" x2="58.1197" y2="66.4981" gradientUnits="userSpaceOnUse">
<stop stop-color="#6DA0E1"/>
<stop offset="0.466346" stop-color="#5B62B3"/>
<stop offset="1" stop-color="#ECA6BB"/>
</linearGradient>
</defs>
</svg>
