<svg width="298" height="413" viewBox="0 0 298 413" fill="none" xmlns="http://www.w3.org/2000/svg">
<path d="M171.388 232.108C176.269 227.227 184.183 227.227 189.063 232.108C189.545 232.59 189.979 233.102 190.366 233.638C192.104 235.601 193.161 238.181 193.161 241.009V289.226C193.161 295.371 188.179 300.353 182.034 300.353C175.889 300.352 170.908 295.371 170.908 289.226V267.938L157.668 281.178C155.088 283.758 151.66 284.972 148.281 284.824C144.902 284.972 141.475 283.758 138.895 281.178L126.4 268.682V289.226C126.4 295.371 121.419 300.352 115.274 300.353C109.129 300.353 104.147 295.371 104.147 289.226V243.691C103.242 239.652 104.357 235.251 107.501 232.108C112.381 227.227 120.294 227.227 125.175 232.108L148.281 255.214L171.388 232.108Z" fill="url(#paint0_linear_23_154)"/>
<path d="M90.5811 211.229C78.0383 225.242 70.4104 243.748 70.4102 264.035C70.4102 307.782 105.874 343.246 149.621 343.246C193.368 343.246 228.832 307.782 228.832 264.035C228.832 243.748 221.204 225.242 208.661 211.229H265.824C267.426 216.085 268.771 221.073 269.84 226.171C270.377 226.265 270.917 226.381 271.456 226.521L282.697 229.437C291.517 231.724 297.676 239.685 297.676 248.796V270.602C297.676 279.737 291.484 287.713 282.634 289.978L271.392 292.854C270.118 293.18 268.848 293.373 267.594 293.449C265.03 302.548 261.575 311.232 257.336 319.385C257.877 320.112 258.38 320.886 258.833 321.707L269.206 340.504C273.51 348.304 272.136 358.01 265.837 364.31L249.444 380.702C243.3 386.846 233.891 388.32 226.162 384.349L205.728 373.85C205.4 373.681 205.081 373.504 204.768 373.321C196.589 377.714 187.892 381.163 178.799 383.528C178.692 384.306 178.539 385.088 178.336 385.87L175.42 397.112C173.132 405.932 165.172 412.091 156.061 412.091H134.255C125.119 412.091 117.144 405.899 114.879 397.049L112.002 385.807C111.568 384.111 111.367 382.421 111.37 380.767C103.878 378.148 96.7025 374.779 89.9189 370.746L68.7334 383.112C60.8854 387.693 50.9355 386.408 44.5098 379.982L29.0459 364.519C22.5894 358.062 21.3262 348.051 25.9756 340.192L39.6816 317.026C39.867 316.713 40.0601 316.407 40.2588 316.108C36.7573 308.902 33.8572 301.306 31.6318 293.396C29.8582 293.428 28.042 293.223 26.2197 292.75L14.9785 289.834C6.15895 287.546 0.000168462 279.586 0 270.475V248.669C0.000165441 239.533 6.19124 231.558 15.042 229.293L26.2832 226.416C27.3487 226.143 28.4123 225.964 29.4658 225.867C30.5244 220.874 31.8486 215.989 33.4189 211.229H90.5811ZM149.622 0C161.382 1.85543e-05 170.915 9.53323 170.915 21.293C170.915 28.2599 167.569 34.4454 162.396 38.3301V61.6084H245.173C256.218 61.6085 265.173 70.5629 265.173 81.6084V102.518C274.533 104.186 281.639 112.367 281.64 122.207V141.828C281.64 151.867 274.243 160.176 264.603 161.608V186.38C264.603 186.932 264.155 187.38 263.603 187.38H35.6357C35.0836 187.38 34.6357 186.932 34.6357 186.38V161.608C24.9977 160.174 17.6035 151.865 17.6035 141.828V122.207C17.6037 112.009 25.2365 103.594 35.1006 102.362C35.1342 102.341 35.1698 102.322 35.2061 102.305V81.6084C35.2062 70.563 44.1606 61.6086 55.2061 61.6084H136.845V38.3271C131.674 34.4423 128.329 28.2583 128.329 21.293C128.329 9.53334 137.862 0.000198955 149.622 0ZM98.5156 102.208C86.7562 102.209 77.2227 111.741 77.2227 123.501C77.2228 135.26 86.7562 144.793 98.5156 144.794C110.275 144.794 119.809 135.261 119.81 123.501C119.81 111.741 110.276 102.208 98.5156 102.208ZM209.241 102.207C197.482 102.207 187.948 111.741 187.948 123.5C187.948 135.26 197.482 144.794 209.241 144.794C221.001 144.794 230.534 135.26 230.534 123.5C230.534 111.74 221.001 102.207 209.241 102.207Z" fill="url(#paint1_linear_23_154)"/>
<defs>
<linearGradient id="paint0_linear_23_154" x1="264.575" y1="230.775" x2="156.688" y2="338.13" gradientUnits="userSpaceOnUse">
<stop offset="0.00961538" stop-color="#ECEAF6"/>
<stop offset="0.524135" stop-color="#A692C1"/>
<stop offset="0.777678" stop-color="#846BAE"/>
<stop offset="1" stop-color="#5560AB"/>
</linearGradient>
<linearGradient id="paint1_linear_23_154" x1="535.682" y1="13.342" x2="-0.39547" y2="323.552" gradientUnits="userSpaceOnUse">
<stop offset="0.00961538" stop-color="#ECEAF6"/>
<stop offset="0.524135" stop-color="#A692C1"/>
<stop offset="0.777678" stop-color="#846BAE"/>
<stop offset="1" stop-color="#5560AB"/>
</linearGradient>
</defs>
</svg>
