<svg width="86" height="119" viewBox="0 0 86 119" fill="none" xmlns="http://www.w3.org/2000/svg">
<path d="M49.2918 67.2368C50.6954 65.8331 52.9712 65.8332 54.3748 67.2368C54.5183 67.3803 54.6474 67.5329 54.7615 67.6928C55.2536 68.2555 55.5535 68.9911 55.5535 69.7973V83.6635C55.5535 85.4308 54.1207 86.8637 52.3533 86.8637C50.586 86.8637 49.1531 85.4309 49.1531 83.6635V77.5414L45.3455 81.3491C44.6035 82.091 43.6181 82.4404 42.6463 82.3979C41.6746 82.4404 40.6891 82.0911 39.9471 81.3491L36.3533 77.7553V83.6635C36.3533 85.4308 34.9204 86.8635 33.1531 86.8637C31.3858 86.8637 29.953 85.4309 29.953 83.6635V70.5668C29.693 69.4056 30.0141 68.1405 30.9178 67.2368C32.3215 65.8333 34.5972 65.8332 36.0008 67.2368L42.6463 73.8823L49.2918 67.2368Z" fill="white"/>
<path d="M26.0527 61.2314C22.4451 65.2618 20.2502 70.5841 20.25 76.4189C20.2502 89.0003 30.4498 99.1991 43.0312 99.1992C55.6126 99.1991 65.8123 89.0003 65.8125 76.4189C65.8123 70.584 63.6165 65.2618 60.0088 61.2314H76.4473C76.9057 62.621 77.2929 64.0474 77.5996 65.5059L84.1143 67.1963C84.9959 67.4251 85.6119 68.222 85.6123 69.1328V81.2197C85.6123 82.1333 84.9924 82.9307 84.1074 83.1572L76.9248 84.9951C76.1972 87.5471 75.2249 89.985 74.0381 92.2773L78.7871 100.881C79.2174 101.661 79.0798 102.632 78.4502 103.262L69.8057 111.906C69.1912 112.521 68.2504 112.668 67.4775 112.271L58.8799 107.853C56.5442 109.106 54.0617 110.091 51.4668 110.77L49.7217 117.501C49.4929 118.383 48.6972 118.999 47.7861 118.999H35.6982C34.7849 118.999 33.9873 118.38 33.7607 117.495L31.8213 109.915C29.7425 109.173 27.7497 108.23 25.8623 107.107L17.2695 112.124C16.4847 112.582 15.4893 112.453 14.8467 111.811L6.29492 103.259C5.64991 102.613 5.5235 101.612 5.98828 100.826L11.5742 91.3838C10.6043 89.3859 9.79374 87.2839 9.16406 85.0977L1.49805 83.1094C0.616172 82.8805 0 82.084 0 81.1729V69.0859C0.000367952 68.1728 0.619235 67.375 1.50391 67.1484L8.49023 65.3604C8.79178 63.9525 9.16818 62.5747 9.61133 61.2314H26.0527ZM43.0312 0.482422C46.4134 0.48245 49.1552 3.22433 49.1553 6.60645C49.1553 8.61007 48.1926 10.3886 46.7051 11.5059V18.2012H66.2637C71.7864 18.2013 76.2636 22.6784 76.2637 28.2012V29.8779H78.999C80.1036 29.8779 80.999 30.7734 80.999 31.8779V45.0244C80.999 46.129 80.1036 47.0244 78.999 47.0244H76.0996V53.373C76.0996 53.9253 75.6519 54.373 75.0996 54.373H10.9609C10.4088 54.3729 9.96094 53.9252 9.96094 53.373V47.0244H7.0625C5.95805 47.0243 5.0625 46.1289 5.0625 45.0244V31.8779C5.06253 30.7735 5.95807 29.8781 7.0625 29.8779H10.125V28.2012C10.125 22.6784 14.6023 18.2013 20.125 18.2012H39.3564V11.5049C37.8696 10.3876 36.9072 8.60954 36.9072 6.60645C36.9073 3.22438 39.6492 0.482536 43.0312 0.482422ZM28.333 29.8779C24.951 29.8781 22.209 32.6199 22.209 36.002C22.2093 39.3837 24.9512 42.1258 28.333 42.126C31.715 42.1259 34.4567 39.3838 34.457 36.002C34.457 32.6198 31.7151 29.878 28.333 29.8779ZM60.1777 29.8779C56.7958 29.8781 54.0537 32.6199 54.0537 36.002C54.0541 39.3836 56.796 42.1258 60.1777 42.126C63.5596 42.126 66.3013 39.3837 66.3018 36.002C66.3017 32.6198 63.5599 29.8779 60.1777 29.8779Z" fill="white"/>
</svg>
